<svg width="28" height="28" viewBox="0 0 28 28" fill="none" xmlns="http://www.w3.org/2000/svg">
<path d="M14 12.869H10.6072M14 9.47617V12.869V9.47617ZM14 12.869V16.2619V12.869ZM14 12.869H17.3929H14Z" stroke="white" strokeWidth="3.16667" strokeLinecap="round"/>
<path d="M16.2619 21.9166C20.5267 21.9166 22.6597 21.9166 23.9841 20.5912C25.3095 19.2668 25.3095 17.1339 25.3095 12.869C25.3095 8.60421 25.3095 6.47123 23.9841 5.14689C22.6597 3.82141 20.5267 3.82141 16.2619 3.82141L11.7381 3.82141C7.47329 3.82141 5.34031 3.82141 4.01597 5.14689C2.69049 6.47123 2.69049 8.60421 2.69049 12.869C2.69049 17.1339 2.69049 19.2668 4.01597 20.5912C4.75448 21.3308 5.74406 21.6577 7.2143 21.8013" stroke="white" strokeWidth="3.16667" strokeLinecap="round" strokeLinejoin="round"/>
<path d="M16.2619 21.9166C14.8641 21.9166 13.3237 22.4821 11.918 23.2116C9.65831 24.3844 8.52849 24.9713 7.97206 24.597C7.41563 24.2238 7.52081 23.0646 7.7323 20.7472L7.7798 20.2202" stroke="white" strokeWidth="3.16667" strokeLinecap="round"/>
</svg>
