<svg width="161" height="193" viewBox="0 0 161 193" fill="none" xmlns="http://www.w3.org/2000/svg">
<g id="Group 481805">
<g id="&#229;&#133;&#137;&#230;&#149;&#136;&#230;&#158;&#156;">
<path id="Vector 271" d="M89.5541 75.1535L88.0458 41H100.113L98.6043 75.1535H89.5541Z" fill="url(#paint0_linear_621_1698)"/>
<path id="Vector 264" d="M103.668 84.9175L134 100.688L127.967 111.138L99.1429 92.7551L103.668 84.9175Z" fill="url(#paint1_linear_621_1698)"/>
<path id="Vector 265" d="M98.3886 93.3616L99.897 127.515H87.8301L89.3384 93.3616H98.3886Z" fill="url(#paint2_linear_621_1698)"/>
<path id="Vector 267" d="M88.8571 92.8635L60.0334 111.247L54 100.796L84.332 85.0259L88.8571 92.8635Z" fill="url(#paint3_linear_621_1698)"/>
<path id="Vector 274" d="M103.668 83.6514L134 67.8809L127.967 57.4306L99.1429 75.8137L103.668 83.6514Z" fill="url(#paint4_linear_621_1698)"/>
<path id="Vector 275" d="M88.8571 75.7058L60.0334 57.3228L54 67.773L84.332 83.5435L88.8571 75.7058Z" fill="url(#paint5_linear_621_1698)"/>
</g>
<g id="Group 339" filter="url(#filter0_dd_621_1698)">
<g id="Group 311">
<path id="Vector 312" d="M62.8396 75.947H70.2402V93.4206C65.6148 93.4206 62.8396 90.1507 62.8396 87.4939V75.947Z" fill="url(#paint6_linear_621_1698)"/>
<path id="Vector 313" d="M62.8396 75.947H70.2402V93.4206C65.6148 93.4206 62.8396 90.1507 62.8396 87.4939V75.947Z" stroke="url(#paint7_linear_621_1698)" strokeWidth="2"/>
</g>
<g id="Group 336">
<g id="Group 312">
<path id="Vector 312_2" d="M124.922 75.947H117.522V93.4206C122.147 93.4206 124.922 90.1507 124.922 87.4939V75.947Z" fill="url(#paint8_linear_621_1698)"/>
<path id="Vector 313_2" d="M124.922 75.947H117.522V93.4206C122.147 93.4206 124.922 90.1507 124.922 87.4939V75.947Z" stroke="url(#paint9_linear_621_1698)" strokeWidth="2"/>
</g>
<g id="Group 309">
<g id="Group 307">
<g id="Group 310">
<path id="Vector 301" d="M84.0137 91.7759H104.057V120.51L95.3485 125.507C94.4569 126.019 93.3604 126.017 92.4707 125.502L84.0137 120.608V91.7759Z" fill="#BB9986" stroke="url(#paint10_linear_621_1698)" strokeWidth="2"/>
<path id="Intersect" fill-rule="evenodd" clip-rule="evenodd" d="M82.5747 91.7759V119.948L75.3641 115.718C74.4822 115.201 73.9404 114.255 73.9404 113.232V91.7759H82.5747Z" fill="#8C685C" stroke="url(#paint11_linear_621_1698)" strokeWidth="2"/>
<path id="Intersect_2" fill-rule="evenodd" clip-rule="evenodd" d="M105.393 91.7759V119.948L112.603 115.718C113.485 115.201 114.027 114.255 114.027 113.232V91.7759H105.393Z" fill="#8C685C" stroke="url(#paint12_linear_621_1698)" strokeWidth="2"/>
</g>
</g>
</g>
<path id="Vector 315" d="M113.307 104.008V113.772C112.862 113.806 111.951 114.183 111.868 115.417L106.215 118.706V107.502" stroke="url(#paint13_linear_621_1698)"/>
<path id="Union" fill-rule="evenodd" clip-rule="evenodd" d="M84.9385 109.455H84.7329V119.615L84.8188 119.629C85.1217 119.68 85.3804 119.753 85.6023 119.952C85.8251 120.151 86.0234 120.488 86.175 121.095L86.1857 121.138L93.8537 125.49H94.0864L94.0864 125.49L94.1439 125.472L101.782 121.138L101.792 121.095C101.944 120.488 102.142 120.151 102.365 119.952C102.587 119.753 102.846 119.68 103.148 119.63L103.234 119.615V109.455H103.029V119.442C102.745 119.495 102.47 119.582 102.228 119.798C101.969 120.031 101.759 120.4 101.604 121.002L94.0594 125.284H93.908L86.3635 121.002C86.2079 120.4 85.9988 120.03 85.7394 119.798C85.4974 119.582 85.2222 119.495 84.9385 119.442V109.455Z" fill="url(#paint14_linear_621_1698)"/>
<path id="Vector 314" d="M74.7627 104.008V113.772C75.2081 113.806 76.1195 114.183 76.2017 115.417L81.8549 118.706V107.502" stroke="url(#paint15_linear_621_1698)"/>
<g id="Group 291" filter="url(#filter1_d_621_1698)">
<g id="Group 206">
<g id="Group 169">
<g id="Group 166">
<path id="Union_2" d="M85.7573 59.3979L77.0608 64.1287C71.59 67.1048 68.1844 72.8342 68.1844 79.0621L68.1844 90.615C68.1844 96.8429 71.59 102.572 77.0608 105.548L85.7573 110.279C90.8225 113.035 96.9392 113.035 102.004 110.279L110.701 105.548C116.172 102.572 119.577 96.8429 119.577 90.615L119.577 79.0621C119.577 72.8342 116.172 67.1048 110.701 64.1287L102.004 59.3979C96.9392 56.6425 90.8225 56.6425 85.7573 59.3979Z" fill="url(#paint16_linear_621_1698)"/>
<path id="Union_3" d="M85.757 63.9038L80.9333 66.5278C75.483 69.4927 72.0903 75.2005 72.0903 81.405L72.0903 88.168C72.0903 94.3725 75.483 100.08 80.9333 103.045L85.757 105.669C90.8032 108.414 96.8969 108.414 101.943 105.669L106.767 103.045C112.217 100.08 115.61 94.3725 115.61 88.168L115.61 81.405C115.61 75.2005 112.217 69.4927 106.767 66.5278L101.943 63.9038C96.8969 61.1587 90.8032 61.1587 85.757 63.9038Z" fill="url(#paint17_linear_621_1698)"/>
<g id="Union_4" filter="url(#filter2_f_621_1698)">
<path d="M85.757 63.9038L80.9333 66.5278C75.483 69.4927 72.0903 75.2005 72.0903 81.405L72.0903 88.168C72.0903 94.3725 75.483 100.08 80.9333 103.045L85.757 105.669C90.8032 108.414 96.8969 108.414 101.943 105.669L106.767 103.045C112.217 100.08 115.61 94.3725 115.61 88.168L115.61 81.405C115.61 75.2005 112.217 69.4927 106.767 66.5278L101.943 63.9038C96.8969 61.1587 90.8032 61.1587 85.757 63.9038Z" stroke="url(#paint18_linear_621_1698)"/>
</g>
<g id="Mask Group" opacity="0.5">
<mask id="mask0_621_1698" style="mask-type:alpha" maskUnits="userSpaceOnUse" x="73" y="63" width="42" height="43">
<path id="Union_5" d="M86.2907 65.738L82.3574 67.8758C77.17 70.6951 73.9404 76.1261 73.9404 82.0302L73.9404 87.623C73.9404 93.527 77.17 98.958 82.3574 101.777L86.2907 103.915C91.088 106.522 96.8793 106.522 101.677 103.915L105.61 101.777C110.797 98.958 114.027 93.527 114.027 87.623V82.0302C114.027 76.1261 110.797 70.6951 105.61 67.8758L101.677 65.738C96.8793 63.1307 91.088 63.1307 86.2907 65.738Z" fill="#A6D3DE"/>
</mask>
<g mask="url(#mask0_621_1698)">
<path id="Innershadow0.1fill" d="M86.2907 65.738L82.3574 67.8758C77.17 70.6951 73.9404 76.1261 73.9404 82.0302L73.9404 87.623C73.9404 93.527 77.17 98.958 82.3574 101.777L86.2907 103.915C91.088 106.522 96.8793 106.522 101.677 103.915L105.61 101.777C110.797 98.958 114.027 93.527 114.027 87.623V82.0302C114.027 76.1261 110.797 70.6951 105.61 67.8758L101.677 65.738C96.8793 63.1307 91.088 63.1307 86.2907 65.738Z" fill="url(#paint19_radial_621_1698)"/>
<g id="Group 57">
<path id="Vector 5" opacity="0.5" d="M90.633 109.016L89.8368 60.6355H98.1306L97.3344 109.016H90.633Z" fill="url(#paint20_linear_621_1698)"/>
<path id="Vector 6" opacity="0.5" d="M90.5264 108.587L65.6467 67.0862L72.8293 62.9393L96.3299 105.236L90.5264 108.587Z" fill="url(#paint21_linear_621_1698)"/>
<path id="Vector 7" opacity="0.5" d="M89.8352 105.236L113.336 62.9392L120.518 67.0861L95.6387 108.586L89.8352 105.236Z" fill="url(#paint22_linear_621_1698)"/>
<rect id="Rectangle 3" x="73.9405" y="82.061" width="40.0864" height="26.0331" fill="url(#paint23_linear_621_1698)"/>
</g>
<g id="Innershadow0.1fill_2" filter="url(#filter3_i_621_1698)">
<path d="M86.2907 65.738L82.3574 67.8758C77.17 70.6951 73.9404 76.1261 73.9404 82.0302L73.9404 87.623C73.9404 93.527 77.17 98.958 82.3574 101.777L86.2907 103.915C91.088 106.522 96.8793 106.522 101.677 103.915L105.61 101.777C110.797 98.958 114.027 93.527 114.027 87.623V82.0302C114.027 76.1261 110.797 70.6951 105.61 67.8758L101.677 65.738C96.8793 63.1307 91.088 63.1307 86.2907 65.738Z" fill="#F5C4AF" fill-opacity="0.03"/>
</g>
</g>
</g>
</g>
</g>
</g>
</g>
</g>
</g>
<g id="Group 396" filter="url(#filter4_d_621_1698)">
<path id="wood" d="M83.3598 94.4946C83.4391 94.5734 83.5246 94.6582 83.6161 94.7499L83.618 94.7518C83.7095 94.8435 83.7941 94.9291 83.8727 95.0086L83.873 95.0089C84.4066 95.5484 84.6625 95.8071 84.894 95.787C85.1071 95.7686 85.2997 95.5139 85.6695 95.0247C86.2114 94.308 87.1338 93.0879 89.0591 91.37C90.0319 90.2904 92.0032 90.2392 94.2345 90.5695C94.2724 90.5798 94.3103 90.5898 94.3482 90.5995L87.8175 84.0552C87.8282 84.0974 87.8392 84.1397 87.8506 84.1819C88.1708 86.4056 88.11 88.3679 87.0262 89.3329C85.2973 91.2475 84.0712 92.1633 83.3509 92.7012C82.8593 93.0684 82.6033 93.2595 82.584 93.4722C82.563 93.7032 82.8211 93.9595 83.3595 94.4943L83.3598 94.4946Z" fill="url(#paint24_radial_621_1698)"/>
<path id="Exclude" fill-rule="evenodd" clip-rule="evenodd" d="M90.5178 75.7307C88.0436 78.2253 87.1048 81.2282 87.8156 84.0493L94.3016 90.5867C97.1002 91.3027 100.079 90.3558 102.553 87.8612C106.297 84.0865 106.638 78.311 103.314 74.9612C99.9907 71.6115 94.2616 71.956 90.5178 75.7307ZM85.7096 95.0346C85.7096 95.0346 85.7096 95.0346 85.7096 95.0346V95.0346Z" fill="url(#paint25_radial_621_1698)"/>
</g>
</g>
<defs>
<filter id="filter0_dd_621_1698" x="0.643139" y="0.214616" width="186.475" height="191.951" filterUnits="userSpaceOnUse" color-interpolation-filters="sRGB">
<feFlood flood-opacity="0" result="BackgroundImageFix"/>
<feColorMatrix in="SourceAlpha" type="matrix" values="0 0 0 0 0 0 0 0 0 0 0 0 0 0 0 0 0 0 127 0" result="hardAlpha"/>
<feOffset/>
<feGaussianBlur stdDeviation="10.1994"/>
<feColorMatrix type="matrix" values="0 0 0 0 0.9375 0 0 0 0 0.695 0 0 0 0 0.558594 0 0 0 1 0"/>
<feBlend mode="normal" in2="BackgroundImageFix" result="effect1_dropShadow_621_1698"/>
<feColorMatrix in="SourceAlpha" type="matrix" values="0 0 0 0 0 0 0 0 0 0 0 0 0 0 0 0 0 0 127 0" result="hardAlpha"/>
<feOffset dy="4.07976"/>
<feGaussianBlur stdDeviation="30.5982"/>
<feColorMatrix type="matrix" values="0 0 0 0 1 0 0 0 0 0.749833 0 0 0 0 0.670833 0 0 0 0.6 0"/>
<feBlend mode="normal" in2="effect1_dropShadow_621_1698" result="effect2_dropShadow_621_1698"/>
<feBlend mode="normal" in="SourceGraphic" in2="effect2_dropShadow_621_1698" result="shape"/>
</filter>
<filter id="filter1_d_621_1698" x="62.1844" y="57.3313" width="63.3929" height="69.0144" filterUnits="userSpaceOnUse" color-interpolation-filters="sRGB">
<feFlood flood-opacity="0" result="BackgroundImageFix"/>
<feColorMatrix in="SourceAlpha" type="matrix" values="0 0 0 0 0 0 0 0 0 0 0 0 0 0 0 0 0 0 127 0" result="hardAlpha"/>
<feOffset dy="8"/>
<feGaussianBlur stdDeviation="3"/>
<feColorMatrix type="matrix" values="0 0 0 0 0.491667 0 0 0 0 0.276808 0 0 0 0 0.208958 0 0 0 0.54 0"/>
<feBlend mode="normal" in2="BackgroundImageFix" result="effect1_dropShadow_621_1698"/>
<feBlend mode="normal" in="SourceGraphic" in2="effect1_dropShadow_621_1698" result="shape"/>
</filter>
<filter id="filter2_f_621_1698" x="70.9903" y="60.745" width="45.7196" height="48.0831" filterUnits="userSpaceOnUse" color-interpolation-filters="sRGB">
<feFlood flood-opacity="0" result="BackgroundImageFix"/>
<feBlend mode="normal" in="SourceGraphic" in2="BackgroundImageFix" result="shape"/>
<feGaussianBlur stdDeviation="0.3" result="effect1_foregroundBlur_621_1698"/>
</filter>
<filter id="filter3_i_621_1698" x="73.9404" y="63.7825" width="40.0864" height="42.0881" filterUnits="userSpaceOnUse" color-interpolation-filters="sRGB">
<feFlood flood-opacity="0" result="BackgroundImageFix"/>
<feBlend mode="normal" in="SourceGraphic" in2="BackgroundImageFix" result="shape"/>
<feColorMatrix in="SourceAlpha" type="matrix" values="0 0 0 0 0 0 0 0 0 0 0 0 0 0 0 0 0 0 127 0" result="hardAlpha"/>
<feOffset/>
<feGaussianBlur stdDeviation="6.72414"/>
<feComposite in2="hardAlpha" operator="arithmetic" k2="-1" k3="1"/>
<feColorMatrix type="matrix" values="0 0 0 0 0.283333 0 0 0 0 0.158667 0 0 0 0 0.0566667 0 0 0 1 0"/>
<feBlend mode="normal" in2="shape" result="effect1_innerShadow_621_1698"/>
</filter>
<filter id="filter4_d_621_1698" x="78.5828" y="72.658" width="31.017" height="34.1301" filterUnits="userSpaceOnUse" color-interpolation-filters="sRGB">
<feFlood flood-opacity="0" result="BackgroundImageFix"/>
<feColorMatrix in="SourceAlpha" type="matrix" values="0 0 0 0 0 0 0 0 0 0 0 0 0 0 0 0 0 0 127 0" result="hardAlpha"/>
<feOffset dy="7"/>
<feGaussianBlur stdDeviation="2"/>
<feComposite in2="hardAlpha" operator="out"/>
<feColorMatrix type="matrix" values="0 0 0 0 0 0 0 0 0 0 0 0 0 0 0 0 0 0 0.25 0"/>
<feBlend mode="normal" in2="BackgroundImageFix" result="effect1_dropShadow_621_1698"/>
<feBlend mode="normal" in="SourceGraphic" in2="effect1_dropShadow_621_1698" result="shape"/>
</filter>
<linearGradient id="paint0_linear_621_1698" x1="94.0792" y1="41" x2="94.0792" y2="75.1535" gradientUnits="userSpaceOnUse">
<stop stop-color="#FFBEAA" stop-opacity="0"/>
<stop offset="1" stop-color="#FFC9AA" stop-opacity="0.3"/>
</linearGradient>
<linearGradient id="paint1_linear_621_1698" x1="130.983" y1="105.913" x2="101.405" y2="88.8363" gradientUnits="userSpaceOnUse">
<stop stop-color="#FFBEAA" stop-opacity="0"/>
<stop offset="1" stop-color="#FFC9AA" stop-opacity="0.3"/>
</linearGradient>
<linearGradient id="paint2_linear_621_1698" x1="93.8635" y1="127.515" x2="93.8635" y2="93.3616" gradientUnits="userSpaceOnUse">
<stop stop-color="#FFBEAA" stop-opacity="0"/>
<stop offset="1" stop-color="#FFC9AA" stop-opacity="0.3"/>
</linearGradient>
<linearGradient id="paint3_linear_621_1698" x1="57.0167" y1="106.021" x2="86.5946" y2="88.9447" gradientUnits="userSpaceOnUse">
<stop stop-color="#FFBEAA" stop-opacity="0"/>
<stop offset="1" stop-color="#FFC9AA" stop-opacity="0.3"/>
</linearGradient>
<linearGradient id="paint4_linear_621_1698" x1="130.983" y1="62.6558" x2="101.405" y2="79.7325" gradientUnits="userSpaceOnUse">
<stop stop-color="#FFBEAA" stop-opacity="0"/>
<stop offset="1" stop-color="#FFC9AA" stop-opacity="0.3"/>
</linearGradient>
<linearGradient id="paint5_linear_621_1698" x1="57.0167" y1="62.5479" x2="86.5946" y2="79.6246" gradientUnits="userSpaceOnUse">
<stop stop-color="#FFBEAA" stop-opacity="0"/>
<stop offset="1" stop-color="#FFC9AA" stop-opacity="0.3"/>
</linearGradient>
<linearGradient id="paint6_linear_621_1698" x1="66.5399" y1="75.947" x2="66.5399" y2="93.4206" gradientUnits="userSpaceOnUse">
<stop stop-color="#EFD9BD"/>
<stop offset="1" stop-color="#C39470"/>
</linearGradient>
<linearGradient id="paint7_linear_621_1698" x1="62.8396" y1="75.947" x2="66.5399" y2="93.4206" gradientUnits="userSpaceOnUse">
<stop stop-color="#F3DDC4"/>
<stop offset="0.378992" stop-color="#F3DDC4"/>
<stop offset="0.46253" stop-color="#F3DDC4"/>
<stop offset="1" stop-color="#74523F"/>
</linearGradient>
<linearGradient id="paint8_linear_621_1698" x1="121.222" y1="75.947" x2="121.222" y2="93.4206" gradientUnits="userSpaceOnUse">
<stop stop-color="#EFD9BD"/>
<stop offset="1" stop-color="#C39470"/>
</linearGradient>
<linearGradient id="paint9_linear_621_1698" x1="124.922" y1="75.947" x2="121.222" y2="93.4206" gradientUnits="userSpaceOnUse">
<stop stop-color="#F3DDC4"/>
<stop offset="0.378992" stop-color="#F3DDC4"/>
<stop offset="0.46253" stop-color="#F3DDC4"/>
<stop offset="1" stop-color="#74523F"/>
</linearGradient>
<linearGradient id="paint10_linear_621_1698" x1="84.0134" y1="118.5" x2="104.159" y2="120.248" gradientUnits="userSpaceOnUse">
<stop stop-color="#D8B697"/>
<stop offset="0.374385" stop-color="#F0D6BD"/>
<stop offset="0.71988" stop-color="#C89E78"/>
<stop offset="0.9381" stop-color="#DFCBB9"/>
</linearGradient>
<linearGradient id="paint11_linear_621_1698" x1="73.9403" y1="113.562" x2="82.6655" y2="113.962" gradientUnits="userSpaceOnUse">
<stop stop-color="#D8B697"/>
<stop offset="0.374385" stop-color="#F0D6BD"/>
<stop offset="0.71988" stop-color="#C89E78"/>
<stop offset="0.9381" stop-color="#DFCBB9"/>
</linearGradient>
<linearGradient id="paint12_linear_621_1698" x1="114.027" y1="113.562" x2="105.302" y2="113.962" gradientUnits="userSpaceOnUse">
<stop stop-color="#D8B697"/>
<stop offset="0.374385" stop-color="#F0D6BD"/>
<stop offset="0.71988" stop-color="#C89E78"/>
<stop offset="0.9381" stop-color="#DFCBB9"/>
</linearGradient>
<linearGradient id="paint13_linear_621_1698" x1="113.307" y1="115.374" x2="106.163" y2="115.89" gradientUnits="userSpaceOnUse">
<stop stop-color="#D8B697"/>
<stop offset="0.374385" stop-color="#F0D6BD"/>
<stop offset="0.71988" stop-color="#C89E78"/>
<stop offset="0.9381" stop-color="#DFCBB9"/>
</linearGradient>
<linearGradient id="paint14_linear_621_1698" x1="85.1441" y1="114.183" x2="101.693" y2="120.967" gradientUnits="userSpaceOnUse">
<stop offset="0.192454" stop-color="#DFCBB9"/>
<stop offset="0.475371" stop-color="#D8B290"/>
<stop offset="0.678187" stop-color="#DEBFA4"/>
<stop offset="0.866423" stop-color="#DFCBB9"/>
</linearGradient>
<linearGradient id="paint15_linear_621_1698" x1="74.7626" y1="115.374" x2="81.9074" y2="115.89" gradientUnits="userSpaceOnUse">
<stop stop-color="#D8B697"/>
<stop offset="0.374385" stop-color="#F0D6BD"/>
<stop offset="0.71988" stop-color="#C89E78"/>
<stop offset="0.9381" stop-color="#DFCBB9"/>
</linearGradient>
<linearGradient id="paint16_linear_621_1698" x1="83.0884" y1="62.1738" x2="106.215" y2="108.119" gradientUnits="userSpaceOnUse">
<stop stop-color="#F1DCC1"/>
<stop offset="1" stop-color="#BD8A65"/>
</linearGradient>
<linearGradient id="paint17_linear_621_1698" x1="82.8828" y1="65.9767" x2="102.823" y2="102.774" gradientUnits="userSpaceOnUse">
<stop stop-color="#BF8E69"/>
<stop offset="1" stop-color="#E4C196"/>
</linearGradient>
<linearGradient id="paint18_linear_621_1698" x1="85.0413" y1="64.6405" x2="106.524" y2="103.288" gradientUnits="userSpaceOnUse">
<stop stop-color="#EBD4B7"/>
<stop offset="1" stop-color="#FFE3CE"/>
</linearGradient>
<radialGradient id="paint19_radial_621_1698" cx="0" cy="0" r="1" gradientUnits="userSpaceOnUse" gradientTransform="translate(93.9837 84.8266) rotate(90) scale(23.2697 20.0432)">
<stop stop-color="#E3C29C"/>
<stop offset="1" stop-color="#D1A479"/>
</radialGradient>
<linearGradient id="paint20_linear_621_1698" x1="93.9837" y1="60.6355" x2="93.9837" y2="109.016" gradientUnits="userSpaceOnUse">
<stop stop-color="white"/>
<stop offset="1" stop-color="#F2EDED" stop-opacity="0"/>
</linearGradient>
<linearGradient id="paint21_linear_621_1698" x1="69.238" y1="65.0127" x2="93.4281" y2="106.911" gradientUnits="userSpaceOnUse">
<stop stop-color="white"/>
<stop offset="1" stop-color="#F2EDED" stop-opacity="0"/>
</linearGradient>
<linearGradient id="paint22_linear_621_1698" x1="116.927" y1="65.0126" x2="92.737" y2="106.911" gradientUnits="userSpaceOnUse">
<stop stop-color="white"/>
<stop offset="1" stop-color="#F2EDED" stop-opacity="0"/>
</linearGradient>
<linearGradient id="paint23_linear_621_1698" x1="93.9837" y1="93.3497" x2="93.8627" y2="106.481" gradientUnits="userSpaceOnUse">
<stop offset="0.291667" stop-color="#FFFAF7" stop-opacity="0"/>
<stop offset="1" stop-color="#E4CBAD"/>
</linearGradient>
<radialGradient id="paint24_radial_621_1698" cx="0" cy="0" r="1" gradientUnits="userSpaceOnUse" gradientTransform="translate(98.2419 78.7392) rotate(130.683) scale(25.924 6.74713)">
<stop stop-color="#CD7F32"/>
<stop offset="0.470376" stop-color="#B9722D" stop-opacity="0.747917"/>
<stop offset="0.838542" stop-color="#7B4C1E"/>
<stop offset="1" stop-color="#CD7F32"/>
</radialGradient>
<radialGradient id="paint25_radial_621_1698" cx="0" cy="0" r="1" gradientUnits="userSpaceOnUse" gradientTransform="translate(112.815 62.4427) rotate(129.829) scale(49.0781 12.7182)">
<stop stop-color="#CD7F32"/>
<stop offset="0.470376" stop-color="#B9722D" stop-opacity="0.747917"/>
<stop offset="0.838542" stop-color="#7B4C1E"/>
<stop offset="1" stop-color="#CD7F32"/>
</radialGradient>
</defs>
</svg>
