<svg width="193" height="238" viewBox="0 0 193 238" fill="none" xmlns="http://www.w3.org/2000/svg">
<g id="Group 481803">
<g id="&#229;&#186;&#149;&#233;&#131;&#168;&#229;&#133;&#137;&#230;&#157;&#159;">
<path id="Vector 264" d="M135.668 106.885L166 122.655L159.967 133.105L131.143 114.722L135.668 106.885Z" fill="url(#paint0_linear_621_1303)"/>
<path id="Vector 265" d="M130.628 115.329L132.137 149.482H120.07L121.578 115.329H130.628Z" fill="url(#paint1_linear_621_1303)"/>
<path id="Vector 276" d="M121.344 97.1535L119.835 63H131.902L130.394 97.1535H121.344Z" fill="url(#paint2_linear_621_1303)"/>
<path id="Vector 267" d="M120.857 114.833L92.0335 133.216L86 122.765L116.332 106.995L120.857 114.833Z" fill="url(#paint3_linear_621_1303)"/>
<path id="Vector 274" d="M135.668 105.621L166 89.8501L159.967 79.3999L131.143 97.7829L135.668 105.621Z" fill="url(#paint4_linear_621_1303)"/>
<path id="Vector 275" d="M120.857 97.6748L92.0335 79.2917L86 89.742L116.332 105.512L120.857 97.6748Z" fill="url(#paint5_linear_621_1303)"/>
</g>
<g id="Group 338" filter="url(#filter0_dd_621_1303)">
<g id="Group 327">
<g id="Group 313">
<g id="Group 328">
<path id="Vector 314" d="M109.723 98.99L110.962 92.6413L92.8977 89.1147C92.123 93.0826 94.4634 96.0109 96.7425 96.4559L109.723 98.99Z" fill="url(#paint6_linear_621_1303)"/>
<path id="Vector 315" d="M109.539 99.1104L110.779 92.7617L93.1752 89.3251C92.4006 93.293 94.7409 96.2213 97.0201 96.6663L109.539 99.1104Z" stroke="url(#paint7_linear_621_1303)" strokeWidth="2.29412"/>
</g>
<path id="Vector 312" d="M109.842 104.918L111.082 98.5691L96.0918 95.6427C95.3172 99.6106 97.6576 102.539 99.9367 102.984L109.842 104.918Z" fill="url(#paint8_linear_621_1303)"/>
<path id="Vector 313" d="M109.842 104.918L111.082 98.5691L96.0918 95.6427C95.3172 99.6106 97.6576 102.539 99.9367 102.984L109.842 104.918Z" stroke="url(#paint9_linear_621_1303)" strokeWidth="2.29412"/>
</g>
<g id="Group 314">
<path id="Vector 312_2" d="M114.031 111.592L115.271 105.244L100.281 102.317C99.506 106.285 101.846 109.214 104.126 109.658L114.031 111.592Z" fill="url(#paint10_linear_621_1303)"/>
<path id="Vector 313_2" d="M114.031 111.592L115.271 105.244L100.281 102.317C99.506 106.285 101.846 109.214 104.126 109.658L114.031 111.592Z" stroke="url(#paint11_linear_621_1303)" strokeWidth="2.29412"/>
</g>
</g>
<g id="Group 332">
<g id="Vector 319" filter="url(#filter1_d_621_1303)">
<path d="M110.62 125.991V113.599H118.688V132.161L112.187 128.627C111.222 128.102 110.62 127.091 110.62 125.991Z" fill="url(#paint12_linear_621_1303)"/>
<path d="M110.62 125.991V113.599H118.688V132.161L112.187 128.627C111.222 128.102 110.62 127.091 110.62 125.991Z" stroke="url(#paint13_linear_621_1303)"/>
</g>
<g id="Group 331">
<path id="Vector 251 (Stroke)" fill-rule="evenodd" clip-rule="evenodd" d="M111.508 127.094V120.649H111.404V127.181L111.447 127.188C111.592 127.212 111.753 127.298 111.885 127.423C112.016 127.549 112.114 127.709 112.138 127.878L112.142 127.906L116.382 129.891V122.8H116.277V129.727L112.237 127.834C112.202 127.648 112.094 127.478 111.957 127.348C111.826 127.223 111.665 127.13 111.508 127.094Z" fill="url(#paint14_linear_621_1303)"/>
<path id="Vector 252 (Stroke)" fill-rule="evenodd" clip-rule="evenodd" d="M116.271 129.338C116.384 129.147 116.391 128.876 116.382 128.7L116.277 128.706C116.286 128.88 116.277 129.122 116.181 129.284C116.134 129.363 116.069 129.42 115.974 129.444C115.878 129.468 115.745 129.459 115.562 129.388L115.524 129.486C115.719 129.561 115.875 129.577 116 129.546C116.126 129.514 116.213 129.436 116.271 129.338Z" fill="url(#paint15_linear_621_1303)"/>
</g>
</g>
<g id="Group 333">
<g id="Vector 319_2" filter="url(#filter2_d_621_1303)">
<path d="M141.087 125.991V113.599H133.02V132.161L139.52 128.627C140.486 128.102 141.087 127.091 141.087 125.991Z" fill="url(#paint16_linear_621_1303)"/>
<path d="M141.087 125.991V113.599H133.02V132.161L139.52 128.627C140.486 128.102 141.087 127.091 141.087 125.991Z" stroke="url(#paint17_linear_621_1303)"/>
</g>
<g id="Group 331_2">
<path id="Vector 251 (Stroke)_2" fill-rule="evenodd" clip-rule="evenodd" d="M140.2 127.094V120.649H140.304V127.181L140.261 127.188C140.116 127.212 139.955 127.298 139.823 127.423C139.692 127.549 139.594 127.709 139.57 127.878L139.566 127.906L135.326 129.891V122.8H135.431V129.727L139.471 127.834C139.506 127.648 139.614 127.478 139.751 127.348C139.882 127.223 140.043 127.13 140.2 127.094Z" fill="url(#paint18_linear_621_1303)"/>
<path id="Vector 252 (Stroke)_2" fill-rule="evenodd" clip-rule="evenodd" d="M135.437 129.338C135.324 129.147 135.317 128.876 135.326 128.7L135.431 128.706C135.422 128.88 135.431 129.122 135.527 129.284C135.573 129.363 135.639 129.42 135.734 129.444C135.83 129.468 135.963 129.459 136.145 129.388L136.183 129.486C135.989 129.561 135.833 129.577 135.708 129.546C135.582 129.514 135.495 129.436 135.437 129.338Z" fill="url(#paint19_linear_621_1303)"/>
</g>
</g>
<g id="Group 328_2">
<g id="Group 313_2">
<g id="Group 328_3">
<path id="Vector 314_2" d="M141.877 99.1938L140.637 92.8452L158.702 89.3185C159.477 93.2864 157.136 96.2148 154.857 96.6597L141.877 99.1938Z" fill="url(#paint20_linear_621_1303)"/>
<path id="Vector 315_2" d="M142.061 99.3174L140.821 92.9687L158.425 89.5321C159.199 93.5 156.859 96.4284 154.58 96.8733L142.061 99.3174Z" stroke="url(#paint21_linear_621_1303)" strokeWidth="2.29412"/>
</g>
<path id="Vector 312_3" d="M141.757 105.123L140.518 98.7742L155.508 95.8478C156.283 99.8157 153.942 102.744 151.663 103.189L141.757 105.123Z" fill="url(#paint22_linear_621_1303)"/>
<path id="Vector 313_3" d="M141.757 105.123L140.518 98.7742L155.508 95.8478C156.283 99.8157 153.942 102.744 151.663 103.189L141.757 105.123Z" stroke="url(#paint23_linear_621_1303)" strokeWidth="2.29412"/>
</g>
<g id="Group 314_2">
<path id="Vector 312_4" d="M137.569 111.796L136.329 105.447L151.319 102.521C152.094 106.489 149.753 109.417 147.474 109.862L137.569 111.796Z" fill="url(#paint24_linear_621_1303)"/>
<path id="Vector 313_4" d="M137.569 111.796L136.329 105.447L151.319 102.521C152.094 106.489 149.753 109.417 147.474 109.862L137.569 111.796Z" stroke="url(#paint25_linear_621_1303)" strokeWidth="2.29412"/>
</g>
</g>
<g id="Group 330">
<g id="Vector 301" filter="url(#filter3_d_621_1303)">
<path d="M117.199 112.817H134.43V134.698L127.017 138.467C126.193 138.886 125.218 138.884 124.396 138.463L117.199 134.774V112.817Z" fill="url(#paint26_linear_621_1303)"/>
<path d="M117.199 112.817H134.43V134.698L127.017 138.467C126.193 138.886 125.218 138.884 124.396 138.463L117.199 134.774V112.817Z" stroke="url(#paint27_linear_621_1303)" strokeWidth="2"/>
</g>
<path id="Intersect" fill-rule="evenodd" clip-rule="evenodd" d="M128.321 137.648L127.017 138.311C126.193 138.729 125.218 138.728 124.396 138.306L122.995 137.588V121.587H128.321V137.648Z" fill="url(#paint28_linear_621_1303)"/>
<path id="Vector 318 (Stroke)" fill-rule="evenodd" clip-rule="evenodd" d="M118.139 124.56H118.389V134.353L125.753 138.16L133.241 134.353V124.56H133.49V134.442L125.752 138.345L118.139 134.441V124.56Z" fill="url(#paint29_linear_621_1303)"/>
<g id="Group 326">
<path id="Vector 255 (Stroke)" fill-rule="evenodd" clip-rule="evenodd" d="M125.804 134.743V137.585H125.668V134.743H125.804Z" fill="url(#paint30_linear_621_1303)"/>
<path id="Vector 256 (Stroke)" fill-rule="evenodd" clip-rule="evenodd" d="M125.328 136.578C125.057 136.89 124.727 136.96 124.5 136.922L124.522 136.788C124.703 136.818 124.986 136.765 125.225 136.488C125.466 136.211 125.668 135.702 125.668 134.812H125.804C125.804 135.72 125.598 136.266 125.328 136.578Z" fill="url(#paint31_linear_621_1303)"/>
<path id="Vector 257 (Stroke)" fill-rule="evenodd" clip-rule="evenodd" d="M126.144 136.578C126.415 136.89 126.746 136.96 126.973 136.922L126.951 136.788C126.769 136.818 126.487 136.765 126.247 136.488C126.007 136.211 125.804 135.702 125.804 134.812H125.668C125.668 135.72 125.874 136.266 126.144 136.578Z" fill="url(#paint32_linear_621_1303)"/>
<path id="Vector 254 (Stroke)" fill-rule="evenodd" clip-rule="evenodd" d="M125.708 137.65L124.17 136.788L124.511 136.788L125.736 137.513L126.961 136.782H127.262L125.764 137.65C125.746 137.658 125.726 137.658 125.708 137.65Z" fill="url(#paint33_linear_621_1303)"/>
</g>
</g>
<g id="Group 292" filter="url(#filter4_d_621_1303)">
<g id="Group 206">
<g id="Group 169">
<g id="Group 166">
<path id="Union" d="M117.691 87.9397L115.11 89.3435C109.64 92.3196 106.234 98.049 106.234 104.277L106.234 108.27C106.234 114.498 109.64 120.228 115.11 123.204L117.691 124.607C122.756 127.363 128.873 127.363 133.938 124.607L136.519 123.204C141.99 120.228 145.395 114.498 145.395 108.27L145.395 104.277C145.395 98.049 141.99 92.3196 136.519 89.3435L133.938 87.9397C128.873 85.1842 122.756 85.1842 117.691 87.9397Z" fill="url(#paint34_linear_621_1303)"/>
<path id="Union_2" d="M109.21 106.627L109.21 105.843C109.21 99.7686 112.532 94.1804 117.868 91.2777C122.808 88.5902 128.774 88.5902 133.714 91.2777C139.05 94.1804 142.372 99.7686 142.372 105.843V106.627C142.372 112.701 139.05 118.289 133.714 121.192C128.774 123.879 122.808 123.879 117.868 121.192C112.532 118.289 109.21 112.701 109.21 106.627Z" fill="url(#paint35_linear_621_1303)"/>
<g id="Union_3" filter="url(#filter5_f_621_1303)">
<path d="M109.21 106.627L109.21 105.843C109.21 99.7686 112.532 94.1804 117.868 91.2777C122.808 88.5902 128.774 88.5902 133.714 91.2777C139.05 94.1804 142.372 99.7686 142.372 105.843V106.627C142.372 112.701 139.05 118.289 133.714 121.192C128.774 123.879 122.808 123.879 117.868 121.192C112.532 118.289 109.21 112.701 109.21 106.627Z" stroke="url(#paint36_linear_621_1303)"/>
</g>
<g id="Mask Group" opacity="0.5">
<mask id="mask0_621_1303" style="mask-type:alpha" maskUnits="userSpaceOnUse" x="110" y="90" width="32" height="32">
<path id="Union_4" d="M110.62 106.613L110.62 105.916C110.62 100.318 113.682 95.1694 118.6 92.4966C123.148 90.0247 128.638 90.0247 133.186 92.4966C138.104 95.1694 141.166 100.318 141.166 105.916V106.613C141.166 112.21 138.104 117.359 133.186 120.032C128.638 122.503 123.148 122.503 118.6 120.032C113.682 117.359 110.62 112.21 110.62 106.613Z" fill="#A6D3DE"/>
</mask>
<g mask="url(#mask0_621_1303)">
<path id="Innershadow0.1fill" d="M110.62 106.613L110.62 105.916C110.62 100.318 113.682 95.1694 118.6 92.4966C123.148 90.0247 128.638 90.0247 133.186 92.4966C138.104 95.1694 141.166 100.318 141.166 105.916V106.613C141.166 112.21 138.104 117.359 133.186 120.032C128.638 122.503 123.148 122.503 118.6 120.032C113.682 117.359 110.62 112.21 110.62 106.613Z" fill="url(#paint37_radial_621_1303)"/>
<g id="Group 57">
<path id="Vector 5" opacity="0.5" d="M123.34 124.697L122.733 87.8311H129.053L128.446 124.697H123.34Z" fill="url(#paint38_linear_621_1303)"/>
<path id="Vector 6" opacity="0.5" d="M123.258 124.37L104.3 92.7468L109.773 89.5869L127.681 121.817L123.258 124.37Z" fill="url(#paint39_linear_621_1303)"/>
<path id="Vector 7" opacity="0.5" d="M122.732 121.816L140.639 89.5862L146.112 92.7461L127.154 124.369L122.732 121.816Z" fill="url(#paint40_linear_621_1303)"/>
<rect id="Rectangle 3" x="110.62" y="104.156" width="30.5457" height="19.8371" fill="url(#paint41_linear_621_1303)"/>
</g>
<g id="Innershadow0.1fill_2" filter="url(#filter6_i_621_1303)">
<path d="M110.62 106.613L110.62 105.916C110.62 100.318 113.682 95.1694 118.6 92.4966C123.148 90.0247 128.638 90.0247 133.186 92.4966C138.104 95.1694 141.166 100.318 141.166 105.916V106.613C141.166 112.21 138.104 117.359 133.186 120.032C128.638 122.503 123.148 122.503 118.6 120.032C113.682 117.359 110.62 112.21 110.62 106.613Z" fill="white" fill-opacity="0.01"/>
</g>
</g>
</g>
</g>
</g>
</g>
</g>
</g>
<g id="Group 347">
<g id="Ellipse 12" opacity="0.3" filter="url(#filter7_f_621_1303)">
<ellipse cx="114.606" cy="81.2673" rx="1.19279" ry="1.1928" fill="#FFEBC4"/>
</g>
<g id="Ellipse 21" filter="url(#filter8_f_621_1303)">
<ellipse cx="109.581" cy="124.488" rx="0.397599" ry="0.397598" fill="#FFEBC4"/>
</g>
<g id="Ellipse 22" opacity="0.3" filter="url(#filter9_f_621_1303)">
<ellipse cx="112.871" cy="88.1476" rx="0.397599" ry="0.397598" fill="#FFEBC4"/>
</g>
<g id="Ellipse 23" filter="url(#filter10_f_621_1303)">
<ellipse cx="146.392" cy="111.488" rx="0.397599" ry="0.397598" fill="#FFEBC4"/>
</g>
<g id="Ellipse 19" filter="url(#filter11_f_621_1303)">
<ellipse cx="98.4472" cy="107.98" rx="1.32533" ry="1.32533" fill="#FFDDAA"/>
</g>
<g id="Ellipse 9" opacity="0.6" filter="url(#filter12_f_621_1303)">
<ellipse cx="158.96" cy="102.28" rx="1.06026" ry="1.06026" fill="#FFDDAA"/>
</g>
<g id="Ellipse 18" opacity="0.8" filter="url(#filter13_f_621_1303)">
<ellipse cx="115.099" cy="136.905" rx="1.06026" ry="1.06026" fill="#FFDDAA"/>
</g>
</g>
<g id="Group 398" filter="url(#filter14_d_621_1303)">
<path id="wood" d="M117.771 114.102C117.831 114.162 117.896 114.226 117.966 114.296L117.967 114.298C118.037 114.367 118.102 114.433 118.161 114.493L118.162 114.493C118.568 114.905 118.763 115.102 118.94 115.086C119.102 115.072 119.249 114.878 119.531 114.506C119.943 113.959 120.646 113.03 122.113 111.721C122.855 110.898 124.357 110.859 126.057 111.111C126.086 111.119 126.115 111.126 126.144 111.134L121.167 106.147C121.175 106.179 121.184 106.211 121.193 106.243C121.437 107.938 121.39 109.433 120.564 110.168C119.247 111.627 118.313 112.325 117.764 112.735C117.389 113.015 117.194 113.16 117.179 113.323C117.163 113.499 117.36 113.694 117.77 114.101L117.771 114.102Z" fill="url(#paint42_linear_621_1303)"/>
<path id="Exclude" fill-rule="evenodd" clip-rule="evenodd" d="M123.225 99.8072C121.34 101.708 120.625 103.996 121.166 106.146L126.108 111.127C128.241 111.673 130.511 110.952 132.396 109.051C135.249 106.174 135.508 101.773 132.976 99.2209C130.443 96.6684 126.078 96.9309 123.225 99.8072ZM119.561 114.517C119.561 114.517 119.561 114.517 119.561 114.517V114.517Z" fill="url(#paint43_linear_621_1303)"/>
</g>
</g>
<defs>
<filter id="filter0_dd_621_1303" x="0.0424042" y="0.159263" width="251.515" height="237.579" filterUnits="userSpaceOnUse" color-interpolation-filters="sRGB">
<feFlood flood-opacity="0" result="BackgroundImageFix"/>
<feColorMatrix in="SourceAlpha" type="matrix" values="0 0 0 0 0 0 0 0 0 0 0 0 0 0 0 0 0 0 127 0" result="hardAlpha"/>
<feOffset/>
<feGaussianBlur stdDeviation="15.306"/>
<feColorMatrix type="matrix" values="0 0 0 0 0.991667 0 0 0 0 0.801597 0 0 0 0 0.516493 0 0 0 1 0"/>
<feBlend mode="normal" in2="BackgroundImageFix" result="effect1_dropShadow_621_1303"/>
<feColorMatrix in="SourceAlpha" type="matrix" values="0 0 0 0 0 0 0 0 0 0 0 0 0 0 0 0 0 0 127 0" result="hardAlpha"/>
<feOffset dy="6.12241"/>
<feGaussianBlur stdDeviation="45.9181"/>
<feColorMatrix type="matrix" values="0 0 0 0 1 0 0 0 0 0.722667 0 0 0 0 0.466667 0 0 0 0.6 0"/>
<feBlend mode="normal" in2="effect1_dropShadow_621_1303" result="effect2_dropShadow_621_1303"/>
<feBlend mode="normal" in="SourceGraphic" in2="effect2_dropShadow_621_1303" result="shape"/>
</filter>
<filter id="filter1_d_621_1303" x="102.12" y="105.099" width="25.0672" height="35.9033" filterUnits="userSpaceOnUse" color-interpolation-filters="sRGB">
<feFlood flood-opacity="0" result="BackgroundImageFix"/>
<feColorMatrix in="SourceAlpha" type="matrix" values="0 0 0 0 0 0 0 0 0 0 0 0 0 0 0 0 0 0 127 0" result="hardAlpha"/>
<feOffset/>
<feGaussianBlur stdDeviation="4"/>
<feColorMatrix type="matrix" values="0 0 0 0 0.7 0 0 0 0 0.561568 0 0 0 0 0.32375 0 0 0 0.78 0"/>
<feBlend mode="normal" in2="BackgroundImageFix" result="effect1_dropShadow_621_1303"/>
<feBlend mode="normal" in="SourceGraphic" in2="effect1_dropShadow_621_1303" result="shape"/>
</filter>
<filter id="filter2_d_621_1303" x="124.52" y="105.099" width="25.0672" height="35.9033" filterUnits="userSpaceOnUse" color-interpolation-filters="sRGB">
<feFlood flood-opacity="0" result="BackgroundImageFix"/>
<feColorMatrix in="SourceAlpha" type="matrix" values="0 0 0 0 0 0 0 0 0 0 0 0 0 0 0 0 0 0 127 0" result="hardAlpha"/>
<feOffset/>
<feGaussianBlur stdDeviation="4"/>
<feColorMatrix type="matrix" values="0 0 0 0 0.7 0 0 0 0 0.561568 0 0 0 0 0.32375 0 0 0 0.78 0"/>
<feBlend mode="normal" in2="BackgroundImageFix" result="effect1_dropShadow_621_1303"/>
<feBlend mode="normal" in="SourceGraphic" in2="effect1_dropShadow_621_1303" result="shape"/>
</filter>
<filter id="filter3_d_621_1303" x="108.199" y="103.817" width="35.2309" height="43.9626" filterUnits="userSpaceOnUse" color-interpolation-filters="sRGB">
<feFlood flood-opacity="0" result="BackgroundImageFix"/>
<feColorMatrix in="SourceAlpha" type="matrix" values="0 0 0 0 0 0 0 0 0 0 0 0 0 0 0 0 0 0 127 0" result="hardAlpha"/>
<feOffset/>
<feGaussianBlur stdDeviation="4"/>
<feColorMatrix type="matrix" values="0 0 0 0 0.7 0 0 0 0 0.561568 0 0 0 0 0.32375 0 0 0 0.78 0"/>
<feBlend mode="normal" in2="BackgroundImageFix" result="effect1_dropShadow_621_1303"/>
<feBlend mode="normal" in="SourceGraphic" in2="effect1_dropShadow_621_1303" result="shape"/>
</filter>
<filter id="filter4_d_621_1303" x="100.234" y="85.873" width="51.1611" height="54.801" filterUnits="userSpaceOnUse" color-interpolation-filters="sRGB">
<feFlood flood-opacity="0" result="BackgroundImageFix"/>
<feColorMatrix in="SourceAlpha" type="matrix" values="0 0 0 0 0 0 0 0 0 0 0 0 0 0 0 0 0 0 127 0" result="hardAlpha"/>
<feOffset dy="8"/>
<feGaussianBlur stdDeviation="3"/>
<feColorMatrix type="matrix" values="0 0 0 0 0.4375 0 0 0 0 0.287401 0 0 0 0 0.111198 0 0 0 0.6 0"/>
<feBlend mode="normal" in2="BackgroundImageFix" result="effect1_dropShadow_621_1303"/>
<feBlend mode="normal" in="SourceGraphic" in2="effect1_dropShadow_621_1303" result="shape"/>
</filter>
<filter id="filter5_f_621_1303" x="108.41" y="88.4622" width="34.7617" height="35.5453" filterUnits="userSpaceOnUse" color-interpolation-filters="sRGB">
<feFlood flood-opacity="0" result="BackgroundImageFix"/>
<feBlend mode="normal" in="SourceGraphic" in2="BackgroundImageFix" result="shape"/>
<feGaussianBlur stdDeviation="0.15" result="effect1_foregroundBlur_621_1303"/>
</filter>
<filter id="filter6_i_621_1303" x="110.62" y="90.6428" width="30.5457" height="31.2427" filterUnits="userSpaceOnUse" color-interpolation-filters="sRGB">
<feFlood flood-opacity="0" result="BackgroundImageFix"/>
<feBlend mode="normal" in="SourceGraphic" in2="BackgroundImageFix" result="shape"/>
<feColorMatrix in="SourceAlpha" type="matrix" values="0 0 0 0 0 0 0 0 0 0 0 0 0 0 0 0 0 0 127 0" result="hardAlpha"/>
<feOffset/>
<feGaussianBlur stdDeviation="6.72414"/>
<feComposite in2="hardAlpha" operator="arithmetic" k2="-1" k3="1"/>
<feColorMatrix type="matrix" values="0 0 0 0 0.458333 0 0 0 0 0.256743 0 0 0 0 0.0706597 0 0 0 1 0"/>
<feBlend mode="normal" in2="shape" result="effect1_innerShadow_621_1303"/>
</filter>
<filter id="filter7_f_621_1303" x="93.1071" y="59.7687" width="42.9971" height="42.997" filterUnits="userSpaceOnUse" color-interpolation-filters="sRGB">
<feFlood flood-opacity="0" result="BackgroundImageFix"/>
<feBlend mode="normal" in="SourceGraphic" in2="BackgroundImageFix" result="shape"/>
<feGaussianBlur stdDeviation="10.1529" result="effect1_foregroundBlur_621_1303"/>
</filter>
<filter id="filter8_f_621_1303" x="107.491" y="122.398" width="4.17949" height="4.17946" filterUnits="userSpaceOnUse" color-interpolation-filters="sRGB">
<feFlood flood-opacity="0" result="BackgroundImageFix"/>
<feBlend mode="normal" in="SourceGraphic" in2="BackgroundImageFix" result="shape"/>
<feGaussianBlur stdDeviation="0.846073" result="effect1_foregroundBlur_621_1303"/>
</filter>
<filter id="filter9_f_621_1303" x="104.473" y="79.75" width="16.7952" height="16.7952" filterUnits="userSpaceOnUse" color-interpolation-filters="sRGB">
<feFlood flood-opacity="0" result="BackgroundImageFix"/>
<feBlend mode="normal" in="SourceGraphic" in2="BackgroundImageFix" result="shape"/>
<feGaussianBlur stdDeviation="4" result="effect1_foregroundBlur_621_1303"/>
</filter>
<filter id="filter10_f_621_1303" x="139.995" y="105.09" width="12.7952" height="12.7952" filterUnits="userSpaceOnUse" color-interpolation-filters="sRGB">
<feFlood flood-opacity="0" result="BackgroundImageFix"/>
<feBlend mode="normal" in="SourceGraphic" in2="BackgroundImageFix" result="shape"/>
<feGaussianBlur stdDeviation="3" result="effect1_foregroundBlur_621_1303"/>
</filter>
<filter id="filter11_f_621_1303" x="77.1218" y="86.6543" width="42.6507" height="42.6506" filterUnits="userSpaceOnUse" color-interpolation-filters="sRGB">
<feFlood flood-opacity="0" result="BackgroundImageFix"/>
<feBlend mode="normal" in="SourceGraphic" in2="BackgroundImageFix" result="shape"/>
<feGaussianBlur stdDeviation="10" result="effect1_foregroundBlur_621_1303"/>
</filter>
<filter id="filter12_f_621_1303" x="140.979" y="84.2985" width="35.9634" height="35.9635" filterUnits="userSpaceOnUse" color-interpolation-filters="sRGB">
<feFlood flood-opacity="0" result="BackgroundImageFix"/>
<feBlend mode="normal" in="SourceGraphic" in2="BackgroundImageFix" result="shape"/>
<feGaussianBlur stdDeviation="8.46073" result="effect1_foregroundBlur_621_1303"/>
</filter>
<filter id="filter13_f_621_1303" x="97.1177" y="118.923" width="35.9634" height="35.9635" filterUnits="userSpaceOnUse" color-interpolation-filters="sRGB">
<feFlood flood-opacity="0" result="BackgroundImageFix"/>
<feBlend mode="normal" in="SourceGraphic" in2="BackgroundImageFix" result="shape"/>
<feGaussianBlur stdDeviation="8.46073" result="effect1_foregroundBlur_621_1303"/>
</filter>
<filter id="filter14_d_621_1303" x="113.178" y="97.4658" width="25.5391" height="28.6213" filterUnits="userSpaceOnUse" color-interpolation-filters="sRGB">
<feFlood flood-opacity="0" result="BackgroundImageFix"/>
<feColorMatrix in="SourceAlpha" type="matrix" values="0 0 0 0 0 0 0 0 0 0 0 0 0 0 0 0 0 0 127 0" result="hardAlpha"/>
<feOffset dy="7"/>
<feGaussianBlur stdDeviation="2"/>
<feComposite in2="hardAlpha" operator="out"/>
<feColorMatrix type="matrix" values="0 0 0 0 0 0 0 0 0 0 0 0 0 0 0 0 0 0 0.25 0"/>
<feBlend mode="normal" in2="BackgroundImageFix" result="effect1_dropShadow_621_1303"/>
<feBlend mode="normal" in="SourceGraphic" in2="effect1_dropShadow_621_1303" result="shape"/>
</filter>
<linearGradient id="paint0_linear_621_1303" x1="162.983" y1="127.88" x2="133.405" y2="110.804" gradientUnits="userSpaceOnUse">
<stop stop-color="#FFF6D6" stop-opacity="0"/>
<stop offset="1" stop-color="#FFEFC5" stop-opacity="0.4"/>
</linearGradient>
<linearGradient id="paint1_linear_621_1303" x1="126.103" y1="149.482" x2="126.103" y2="115.329" gradientUnits="userSpaceOnUse">
<stop stop-color="#FFF6D6" stop-opacity="0"/>
<stop offset="1" stop-color="#FFEFC5" stop-opacity="0.4"/>
</linearGradient>
<linearGradient id="paint2_linear_621_1303" x1="125.869" y1="63" x2="125.869" y2="97.1535" gradientUnits="userSpaceOnUse">
<stop stop-color="#FFF6D6" stop-opacity="0"/>
<stop offset="1" stop-color="#FFEFC5" stop-opacity="0.4"/>
</linearGradient>
<linearGradient id="paint3_linear_621_1303" x1="89.0167" y1="127.99" x2="118.595" y2="110.914" gradientUnits="userSpaceOnUse">
<stop stop-color="#FFF6D6" stop-opacity="0"/>
<stop offset="1" stop-color="#FFEFC5" stop-opacity="0.4"/>
</linearGradient>
<linearGradient id="paint4_linear_621_1303" x1="162.983" y1="84.625" x2="133.405" y2="101.702" gradientUnits="userSpaceOnUse">
<stop stop-color="#FFF6D6" stop-opacity="0"/>
<stop offset="1" stop-color="#FFEFC5" stop-opacity="0.4"/>
</linearGradient>
<linearGradient id="paint5_linear_621_1303" x1="89.0167" y1="84.5169" x2="118.595" y2="101.594" gradientUnits="userSpaceOnUse">
<stop stop-color="#FFF6D6" stop-opacity="0"/>
<stop offset="1" stop-color="#FFEFC5" stop-opacity="0.4"/>
</linearGradient>
<linearGradient id="paint6_linear_621_1303" x1="146.058" y1="117.703" x2="143.171" y2="83.1394" gradientUnits="userSpaceOnUse">
<stop stop-color="#BC950B"/>
<stop offset="0.470376" stop-color="#FFD700" stop-opacity="0.747917"/>
<stop offset="0.815625" stop-color="#FFD700" stop-opacity="0.86"/>
<stop offset="1" stop-color="#DB950E" stop-opacity="0.94"/>
</linearGradient>
<linearGradient id="paint7_linear_621_1303" x1="144.891" y1="117.631" x2="141.774" y2="83.1564" gradientUnits="userSpaceOnUse">
<stop stop-color="#BC950B"/>
<stop offset="0.470376" stop-color="#FFD700" stop-opacity="0.747917"/>
<stop offset="0.815625" stop-color="#FFD700" stop-opacity="0.86"/>
<stop offset="1" stop-color="#DB950E" stop-opacity="0.94"/>
</linearGradient>
<linearGradient id="paint8_linear_621_1303" x1="104.023" y1="103.782" x2="99.694" y2="97.3528" gradientUnits="userSpaceOnUse">
<stop stop-color="#EEBC1F"/>
<stop offset="0.875" stop-color="#FEDC25"/>
</linearGradient>
<linearGradient id="paint9_linear_621_1303" x1="139.621" y1="122.35" x2="134.986" y2="88.5519" gradientUnits="userSpaceOnUse">
<stop stop-color="#BC950B"/>
<stop offset="0.470376" stop-color="#FFD700" stop-opacity="0.747917"/>
<stop offset="0.815625" stop-color="#FFD700" stop-opacity="0.86"/>
<stop offset="1" stop-color="#DB950E" stop-opacity="0.94"/>
</linearGradient>
<linearGradient id="paint10_linear_621_1303" x1="108.212" y1="110.456" x2="103.883" y2="104.027" gradientUnits="userSpaceOnUse">
<stop stop-color="#EEBC1F"/>
<stop offset="0.875" stop-color="#FEDC25"/>
</linearGradient>
<linearGradient id="paint11_linear_621_1303" x1="143.81" y1="129.025" x2="139.175" y2="95.2264" gradientUnits="userSpaceOnUse">
<stop stop-color="#BC950B"/>
<stop offset="0.470376" stop-color="#FFD700" stop-opacity="0.747917"/>
<stop offset="0.815625" stop-color="#FFD700" stop-opacity="0.86"/>
<stop offset="1" stop-color="#DB950E" stop-opacity="0.94"/>
</linearGradient>
<linearGradient id="paint12_linear_621_1303" x1="96.3982" y1="74.0171" x2="136.44" y2="88.0486" gradientUnits="userSpaceOnUse">
<stop stop-color="#BC950B"/>
<stop offset="0.470376" stop-color="#FFD700" stop-opacity="0.747917"/>
<stop offset="0.815625" stop-color="#FFD700" stop-opacity="0.86"/>
<stop offset="1" stop-color="#DB950E" stop-opacity="0.94"/>
</linearGradient>
<linearGradient id="paint13_linear_621_1303" x1="96.3982" y1="74.0171" x2="136.44" y2="88.0486" gradientUnits="userSpaceOnUse">
<stop stop-color="#BC950B"/>
<stop offset="0.470376" stop-color="#FFD700" stop-opacity="0.747917"/>
<stop offset="0.815625" stop-color="#FFD700" stop-opacity="0.86"/>
<stop offset="1" stop-color="#DB950E" stop-opacity="0.94"/>
</linearGradient>
<linearGradient id="paint14_linear_621_1303" x1="125.158" y1="100.942" x2="101.817" y2="111.079" gradientUnits="userSpaceOnUse">
<stop stop-color="#BC950B"/>
<stop offset="0.470376" stop-color="#FFD700" stop-opacity="0.747917"/>
<stop offset="0.815625" stop-color="#FFD700" stop-opacity="0.86"/>
<stop offset="1" stop-color="#DB950E" stop-opacity="0.94"/>
</linearGradient>
<linearGradient id="paint15_linear_621_1303" x1="117.901" y1="126.866" x2="114.995" y2="129.207" gradientUnits="userSpaceOnUse">
<stop stop-color="#BC950B"/>
<stop offset="0.470376" stop-color="#FFD700" stop-opacity="0.747917"/>
<stop offset="0.815625" stop-color="#FFD700" stop-opacity="0.86"/>
<stop offset="1" stop-color="#DB950E" stop-opacity="0.94"/>
</linearGradient>
<linearGradient id="paint16_linear_621_1303" x1="155.31" y1="74.0171" x2="115.268" y2="88.0486" gradientUnits="userSpaceOnUse">
<stop stop-color="#BC950B"/>
<stop offset="0.470376" stop-color="#FFD700" stop-opacity="0.747917"/>
<stop offset="0.815625" stop-color="#FFD700" stop-opacity="0.86"/>
<stop offset="1" stop-color="#DB950E" stop-opacity="0.94"/>
</linearGradient>
<linearGradient id="paint17_linear_621_1303" x1="155.31" y1="74.0171" x2="115.268" y2="88.0486" gradientUnits="userSpaceOnUse">
<stop stop-color="#BC950B"/>
<stop offset="0.470376" stop-color="#FFD700" stop-opacity="0.747917"/>
<stop offset="0.815625" stop-color="#FFD700" stop-opacity="0.86"/>
<stop offset="1" stop-color="#DB950E" stop-opacity="0.94"/>
</linearGradient>
<linearGradient id="paint18_linear_621_1303" x1="126.55" y1="100.942" x2="149.891" y2="111.079" gradientUnits="userSpaceOnUse">
<stop stop-color="#BC950B"/>
<stop offset="0.470376" stop-color="#FFD700" stop-opacity="0.747917"/>
<stop offset="0.815625" stop-color="#FFD700" stop-opacity="0.86"/>
<stop offset="1" stop-color="#DB950E" stop-opacity="0.94"/>
</linearGradient>
<linearGradient id="paint19_linear_621_1303" x1="133.807" y1="126.866" x2="136.713" y2="129.207" gradientUnits="userSpaceOnUse">
<stop stop-color="#BC950B"/>
<stop offset="0.470376" stop-color="#FFD700" stop-opacity="0.747917"/>
<stop offset="0.815625" stop-color="#FFD700" stop-opacity="0.86"/>
<stop offset="1" stop-color="#DB950E" stop-opacity="0.94"/>
</linearGradient>
<linearGradient id="paint20_linear_621_1303" x1="105.542" y1="117.906" x2="108.428" y2="83.3433" gradientUnits="userSpaceOnUse">
<stop stop-color="#BC950B"/>
<stop offset="0.470376" stop-color="#FFD700" stop-opacity="0.747917"/>
<stop offset="0.815625" stop-color="#FFD700" stop-opacity="0.86"/>
<stop offset="1" stop-color="#DB950E" stop-opacity="0.94"/>
</linearGradient>
<linearGradient id="paint21_linear_621_1303" x1="106.709" y1="117.838" x2="109.826" y2="83.3634" gradientUnits="userSpaceOnUse">
<stop stop-color="#BC950B"/>
<stop offset="0.470376" stop-color="#FFD700" stop-opacity="0.747917"/>
<stop offset="0.815625" stop-color="#FFD700" stop-opacity="0.86"/>
<stop offset="1" stop-color="#DB950E" stop-opacity="0.94"/>
</linearGradient>
<linearGradient id="paint22_linear_621_1303" x1="147.577" y1="103.987" x2="151.906" y2="97.5579" gradientUnits="userSpaceOnUse">
<stop stop-color="#EEBC1F"/>
<stop offset="0.875" stop-color="#FEDC25"/>
</linearGradient>
<linearGradient id="paint23_linear_621_1303" x1="111.979" y1="122.555" x2="116.614" y2="88.7569" gradientUnits="userSpaceOnUse">
<stop stop-color="#BC950B"/>
<stop offset="0.470376" stop-color="#FFD700" stop-opacity="0.747917"/>
<stop offset="0.815625" stop-color="#FFD700" stop-opacity="0.86"/>
<stop offset="1" stop-color="#DB950E" stop-opacity="0.94"/>
</linearGradient>
<linearGradient id="paint24_linear_621_1303" x1="143.388" y1="110.66" x2="147.717" y2="104.231" gradientUnits="userSpaceOnUse">
<stop stop-color="#EEBC1F"/>
<stop offset="0.875" stop-color="#FEDC25"/>
</linearGradient>
<linearGradient id="paint25_linear_621_1303" x1="107.79" y1="129.228" x2="112.425" y2="95.4298" gradientUnits="userSpaceOnUse">
<stop stop-color="#BC950B"/>
<stop offset="0.470376" stop-color="#FFD700" stop-opacity="0.747917"/>
<stop offset="0.815625" stop-color="#FFD700" stop-opacity="0.86"/>
<stop offset="1" stop-color="#DB950E" stop-opacity="0.94"/>
</linearGradient>
<linearGradient id="paint26_linear_621_1303" x1="86.8218" y1="56.7018" x2="161.919" y2="96.3486" gradientUnits="userSpaceOnUse">
<stop stop-color="#BC950B"/>
<stop offset="0.470376" stop-color="#FFD700" stop-opacity="0.747917"/>
<stop offset="0.815625" stop-color="#FFD700" stop-opacity="0.86"/>
<stop offset="1" stop-color="#DB950E" stop-opacity="0.94"/>
</linearGradient>
<linearGradient id="paint27_linear_621_1303" x1="86.8218" y1="56.7018" x2="161.919" y2="96.3486" gradientUnits="userSpaceOnUse">
<stop stop-color="#BC950B"/>
<stop offset="0.470376" stop-color="#FFD700" stop-opacity="0.747917"/>
<stop offset="0.815625" stop-color="#FFD700" stop-opacity="0.86"/>
<stop offset="1" stop-color="#DB950E" stop-opacity="0.94"/>
</linearGradient>
<linearGradient id="paint28_linear_621_1303" x1="113.606" y1="85.2586" x2="141.514" y2="92.2932" gradientUnits="userSpaceOnUse">
<stop stop-color="#BC950B"/>
<stop offset="0.470376" stop-color="#FFD700" stop-opacity="0.747917"/>
<stop offset="0.815625" stop-color="#FFD700" stop-opacity="0.86"/>
<stop offset="1" stop-color="#DB950E" stop-opacity="0.94"/>
</linearGradient>
<linearGradient id="paint29_linear_621_1303" x1="91.0756" y1="95.1659" x2="138.439" y2="137.695" gradientUnits="userSpaceOnUse">
<stop stop-color="#BC950B"/>
<stop offset="0.470376" stop-color="#FFD700" stop-opacity="0.747917"/>
<stop offset="0.815625" stop-color="#FFD700" stop-opacity="0.86"/>
<stop offset="1" stop-color="#DB950E" stop-opacity="0.94"/>
</linearGradient>
<linearGradient id="paint30_linear_621_1303" x1="125.428" y1="128.683" x2="126.185" y2="128.713" gradientUnits="userSpaceOnUse">
<stop stop-color="#BC950B"/>
<stop offset="0.470376" stop-color="#FFD700" stop-opacity="0.747917"/>
<stop offset="0.815625" stop-color="#FFD700" stop-opacity="0.86"/>
<stop offset="1" stop-color="#DB950E" stop-opacity="0.94"/>
</linearGradient>
<linearGradient id="paint31_linear_621_1303" x1="122.199" y1="130.294" x2="128.033" y2="133.19" gradientUnits="userSpaceOnUse">
<stop stop-color="#BC950B"/>
<stop offset="0.470376" stop-color="#FFD700" stop-opacity="0.747917"/>
<stop offset="0.815625" stop-color="#FFD700" stop-opacity="0.86"/>
<stop offset="1" stop-color="#DB950E" stop-opacity="0.94"/>
</linearGradient>
<linearGradient id="paint32_linear_621_1303" x1="129.273" y1="130.294" x2="123.44" y2="133.19" gradientUnits="userSpaceOnUse">
<stop stop-color="#BC950B"/>
<stop offset="0.470376" stop-color="#FFD700" stop-opacity="0.747917"/>
<stop offset="0.815625" stop-color="#FFD700" stop-opacity="0.86"/>
<stop offset="1" stop-color="#DB950E" stop-opacity="0.94"/>
</linearGradient>
<linearGradient id="paint33_linear_621_1303" x1="118.719" y1="134.919" x2="120.604" y2="140.297" gradientUnits="userSpaceOnUse">
<stop stop-color="#BC950B"/>
<stop offset="0.470376" stop-color="#FFD700" stop-opacity="0.747917"/>
<stop offset="0.815625" stop-color="#FFD700" stop-opacity="0.86"/>
<stop offset="1" stop-color="#DB950E" stop-opacity="0.94"/>
</linearGradient>
<linearGradient id="paint34_linear_621_1303" x1="37.1941" y1="-13.5145" x2="184.511" y2="88.7061" gradientUnits="userSpaceOnUse">
<stop stop-color="#BC950B"/>
<stop offset="0.470376" stop-color="#FFD700" stop-opacity="0.747917"/>
<stop offset="0.815625" stop-color="#FFD700" stop-opacity="0.86"/>
<stop offset="1" stop-color="#DB950E" stop-opacity="0.94"/>
</linearGradient>
<linearGradient id="paint35_linear_621_1303" x1="50.7472" y1="4.79821" x2="175.495" y2="91.3587" gradientUnits="userSpaceOnUse">
<stop stop-color="#BC950B"/>
<stop offset="0.470376" stop-color="#FFD700" stop-opacity="0.747917"/>
<stop offset="0.815625" stop-color="#FFD700" stop-opacity="0.86"/>
<stop offset="1" stop-color="#DB950E" stop-opacity="0.94"/>
</linearGradient>
<linearGradient id="paint36_linear_621_1303" x1="119.079" y1="90.8836" x2="135.448" y2="120.333" gradientUnits="userSpaceOnUse">
<stop stop-color="#FFF6E7"/>
<stop offset="1" stop-color="#FFF8EC"/>
</linearGradient>
<radialGradient id="paint37_radial_621_1303" cx="0" cy="0" r="1" gradientUnits="userSpaceOnUse" gradientTransform="translate(125.893 106.264) rotate(90) scale(17.7314 15.2729)">
<stop stop-color="#FFE4BA"/>
<stop offset="1" stop-color="#DEA44D"/>
</radialGradient>
<linearGradient id="paint38_linear_621_1303" x1="111.591" y1="9.22081" x2="146.151" y2="13.9978" gradientUnits="userSpaceOnUse">
<stop stop-color="#BC950B"/>
<stop offset="0.470376" stop-color="#FFD700" stop-opacity="0.747917"/>
<stop offset="0.815625" stop-color="#FFD700" stop-opacity="0.86"/>
<stop offset="1" stop-color="#DB950E" stop-opacity="0.94"/>
</linearGradient>
<linearGradient id="paint39_linear_621_1303" x1="55.3463" y1="30.2391" x2="87.6647" y2="17.0961" gradientUnits="userSpaceOnUse">
<stop stop-color="#BC950B"/>
<stop offset="0.470376" stop-color="#FFD700" stop-opacity="0.747917"/>
<stop offset="0.815625" stop-color="#FFD700" stop-opacity="0.86"/>
<stop offset="1" stop-color="#DB950E" stop-opacity="0.94"/>
</linearGradient>
<linearGradient id="paint40_linear_621_1303" x1="170.296" y1="15.9369" x2="197.837" y2="37.3539" gradientUnits="userSpaceOnUse">
<stop stop-color="#BC950B"/>
<stop offset="0.470376" stop-color="#FFD700" stop-opacity="0.747917"/>
<stop offset="0.815625" stop-color="#FFD700" stop-opacity="0.86"/>
<stop offset="1" stop-color="#DB950E" stop-opacity="0.94"/>
</linearGradient>
<linearGradient id="paint41_linear_621_1303" x1="125.893" y1="112.758" x2="125.801" y2="122.765" gradientUnits="userSpaceOnUse">
<stop stop-color="white" stop-opacity="0"/>
<stop offset="1" stop-color="#FFF1E3"/>
</linearGradient>
<linearGradient id="paint42_linear_621_1303" x1="126.153" y1="106.157" x2="120.544" y2="113.264" gradientUnits="userSpaceOnUse">
<stop stop-color="#FEDD27"/>
<stop offset="1" stop-color="#EBB81F"/>
</linearGradient>
<linearGradient id="paint43_linear_621_1303" x1="134.717" y1="97.4658" x2="123.948" y2="110.816" gradientUnits="userSpaceOnUse">
<stop stop-color="#FEDD27"/>
<stop offset="1" stop-color="#EBB81F"/>
</linearGradient>
</defs>
</svg>
