<svg width="34" height="34" viewBox="0 0 34 34" fill="none" xmlns="http://www.w3.org/2000/svg">
<path d="M31 28.2V17.2436C31.0001 16.4813 30.8445 15.7271 30.5429 15.027C30.2413 14.327 29.7999 13.6959 29.2458 13.1724L18.9236 3.41721C18.4037 2.92571 17.7154 2.65186 17 2.65186C16.2846 2.65186 15.5963 2.92571 15.0764 3.41721L4.7542 13.1724C4.20011 13.6959 3.75873 14.327 3.4571 15.027C3.15546 15.7271 2.99992 16.4813 3 17.2436L3 28.2C3 28.9426 3.295 29.6548 3.8201 30.1799C4.3452 30.705 5.05739 31 5.8 31H28.2C28.9426 31 29.6548 30.705 30.1799 30.1799C30.705 29.6548 31 28.9426 31 28.2Z" stroke="#4772FC" strokeWidth="2.17" strokeLinecap="round" strokeLinejoin="round"/>
</svg>
