<svg width="630" height="80" viewBox="0 0 630 80" fill="none" xmlns="http://www.w3.org/2000/svg">
<path d="M0 80V20H60V30H70V50H60V60H20V80H0ZM20 50H50V30H20V50ZM110 10V0H130V10H110ZM90 70V60H110V30H100V20H130V60H150V70H90ZM160 70V20H220V30H230V70H210V30H180V70H160ZM250 80V70H290V60H250V50H240V30H250V20H310V70H300V80H250ZM260 50H290V30H260V50ZM320 80V20H380V30H390V50H380V60H340V80H320ZM340 50H370V30H340V50ZM410 70V60H400V30H410V20H460V30H470V60H460V70H410ZM420 60H450V30H420V60ZM480 70V20H540V30H550V70H530V30H500V70H480ZM570 80V70H610V60H570V50H560V30H570V20H630V70H620V80H570ZM580 50H610V30H580V50Z" fill="white"/>
</svg>
