<svg width="170" height="190" viewBox="0 0 170 190" fill="none" xmlns="http://www.w3.org/2000/svg">
<g id="Group 481804">
<g id="Group 341">
<g id="Ellipse 19" opacity="0.5" filter="url(#filter0_f_621_1483)">
<ellipse cx="103.037" cy="50.4204" rx="2.46091" ry="2.46091" fill="url(#paint0_radial_621_1483)"/>
</g>
<path id="Ellipse 14 (Stroke)" fill-rule="evenodd" clip-rule="evenodd" d="M102.627 122.333C122.334 122.333 138.31 106.358 138.31 86.6503C138.31 66.943 122.334 50.967 102.627 50.967C82.9195 50.967 66.9436 66.943 66.9436 86.6503C66.9436 106.358 82.9195 122.333 102.627 122.333ZM102.627 123.154C122.787 123.154 139.13 106.811 139.13 86.6503C139.13 66.4899 122.787 50.1467 102.627 50.1467C82.4664 50.1467 66.1233 66.4899 66.1233 86.6503C66.1233 106.811 82.4664 123.154 102.627 123.154Z" fill="url(#paint1_linear_621_1483)"/>
<g id="Star 31" filter="url(#filter1_f_621_1483)">
<path d="M103.037 46.3188L103.04 50.4175L106.865 50.4204L103.04 50.4233L103.037 54.5219L103.034 50.4233L99.2089 50.4204L103.034 50.4175L103.037 46.3188Z" fill="white"/>
</g>
</g>
<g id="&#229;&#133;&#137;&#230;&#149;&#136;&#230;&#158;&#156;">
<path id="Vector 271" d="M98.5183 75.4314L97.086 43H108.544L107.112 75.4314H98.5183Z" fill="url(#paint2_linear_621_1483)"/>
<path id="Vector 264" d="M111.92 84.7029L140.723 99.6782L134.994 109.602L107.624 92.1454L111.92 84.7029Z" fill="url(#paint3_linear_621_1483)"/>
<path id="Vector 265" d="M106.907 92.7214L108.34 125.153H96.8811L98.3134 92.7214H106.907Z" fill="url(#paint4_linear_621_1483)"/>
<path id="Vector 267" d="M97.8564 92.2482L70.4861 109.704L64.7569 99.7811L93.5595 84.8058L97.8564 92.2482Z" fill="url(#paint5_linear_621_1483)"/>
<path id="Vector 274" d="M111.92 83.5012L140.723 68.5259L134.994 58.6026L107.624 76.0587L111.92 83.5012Z" fill="url(#paint6_linear_621_1483)"/>
<path id="Vector 275" d="M97.8564 75.9559L70.4861 58.4998L64.7569 68.423L93.5595 83.3983L97.8564 75.9559Z" fill="url(#paint7_linear_621_1483)"/>
</g>
<g id="Group 337" filter="url(#filter2_dd_621_1483)">
<g id="Group 315">
<g id="Group 313">
<path id="Vector 312" d="M82.0326 80.1467L82.0326 72.0859L63 72.0859C63 77.1239 66.5617 80.1467 69.4555 80.1467L82.0326 80.1467Z" fill="url(#paint8_linear_621_1483)"/>
<path id="Vector 313" d="M82.0326 80.1467L82.0326 72.0859L63 72.0859C63 77.1239 66.5617 80.1467 69.4555 80.1467L82.0326 80.1467Z" stroke="url(#paint9_linear_621_1483)" strokeWidth="2.29412"/>
</g>
<g id="Group 314">
<path id="Vector 312_2" d="M88.75 87.3113L88.75 79.2504L69.7174 79.2504C69.7174 84.2885 73.279 87.3113 76.1729 87.3113L88.75 87.3113Z" fill="url(#paint10_linear_621_1483)"/>
<path id="Vector 313_2" d="M88.75 87.3113L88.75 79.2504L69.7174 79.2504C69.7174 84.2885 73.279 87.3113 76.1729 87.3113L88.75 87.3113Z" stroke="url(#paint11_linear_621_1483)" strokeWidth="2.29412"/>
</g>
</g>
<g id="Group 318">
<g id="Group 313_2">
<path id="Vector 312_3" d="M123.967 80.1467L123.967 72.0859L143 72.0859C143 77.1239 139.438 80.1467 136.544 80.1467L123.967 80.1467Z" fill="url(#paint12_linear_621_1483)"/>
<path id="Vector 313_3" d="M123.967 80.1467L123.967 72.0859L143 72.0859C143 77.1239 139.438 80.1467 136.544 80.1467L123.967 80.1467Z" stroke="url(#paint13_linear_621_1483)" strokeWidth="2.29412"/>
</g>
<g id="Group 314_2">
<path id="Vector 312_4" d="M117.25 87.3113L117.25 79.2504L136.283 79.2504C136.283 84.2885 132.721 87.3113 129.827 87.3113L117.25 87.3113Z" fill="url(#paint14_linear_621_1483)"/>
<path id="Vector 313_4" d="M117.25 87.3113L117.25 79.2504L136.283 79.2504C136.283 84.2885 132.721 87.3113 129.827 87.3113L117.25 87.3113Z" stroke="url(#paint15_linear_621_1483)" strokeWidth="2.29412"/>
</g>
</g>
<g id="Group 324">
<g id="Group 321">
<g id="Intersect" filter="url(#filter3_d_621_1483)">
<path fill-rule="evenodd" clip-rule="evenodd" d="M92.0686 97.0723V114.415L96.6464 116.875C97.3126 117.233 98.1199 116.751 98.1199 115.994C98.1202 109.868 98.1256 103.061 98.1256 97.0723H92.0686Z" fill="#9CB7ED"/>
<path fill-rule="evenodd" clip-rule="evenodd" d="M92.0686 97.0723V114.415L96.6464 116.875C97.3126 117.233 98.1199 116.751 98.1199 115.994C98.1202 109.868 98.1256 103.061 98.1256 97.0723H92.0686Z" stroke="url(#paint16_linear_621_1483)"/>
</g>
<g id="Group 320">
<path id="Vector 251 (Stroke)" fill-rule="evenodd" clip-rule="evenodd" d="M92.5696 113.637V106.832H92.4589V113.73L92.5051 113.737C92.6581 113.763 92.8283 113.853 92.9672 113.986C93.106 114.118 93.2088 114.287 93.2342 114.465L93.2385 114.495L97.7162 116.787V109.103H97.6055V116.613L93.3389 114.42C93.3025 114.222 93.188 114.043 93.0436 113.906C92.905 113.774 92.7346 113.676 92.5696 113.637Z" fill="url(#paint17_linear_621_1483)"/>
<path id="Vector 252 (Stroke)" fill-rule="evenodd" clip-rule="evenodd" d="M97.5992 116.209C97.7186 116.007 97.7254 115.721 97.7161 115.536L97.6056 115.541C97.6148 115.725 97.605 115.982 97.504 116.152C97.455 116.235 97.3856 116.296 97.2858 116.321C97.1843 116.347 97.0439 116.337 96.8509 116.262L96.8107 116.365C97.0161 116.445 97.1811 116.462 97.3128 116.429C97.4462 116.395 97.538 116.312 97.5992 116.209Z" fill="#E3EFFB"/>
</g>
</g>
<g id="Group 323">
<g id="Group 316">
<g id="Intersect_2" filter="url(#filter4_d_621_1483)">
<path fill-rule="evenodd" clip-rule="evenodd" d="M91.0953 114.024V97.0723H84.0651V108.731C84.0651 109.879 84.7209 110.927 85.754 111.429L91.0953 114.024Z" fill="#C6D9FF"/>
<path fill-rule="evenodd" clip-rule="evenodd" d="M91.0953 114.024V97.0723H84.0651V108.731C84.0651 109.879 84.7209 110.927 85.754 111.429L91.0953 114.024Z" stroke="url(#paint18_linear_621_1483)"/>
</g>
</g>
<g id="Group 322">
<path id="Vector 251 (Stroke)_2" fill-rule="evenodd" clip-rule="evenodd" d="M84.5861 109.787V101.757H84.4555V109.896L84.51 109.905C84.6906 109.935 84.8913 110.042 85.0553 110.198C85.2191 110.354 85.3403 110.554 85.3704 110.764L85.3754 110.799L90.6591 113.274V104.436H90.5285V113.068L85.4939 110.71C85.4509 110.478 85.3159 110.266 85.1454 110.104C84.9818 109.948 84.7808 109.833 84.5861 109.787Z" fill="url(#paint19_linear_621_1483)"/>
<path id="Vector 252 (Stroke)_2" fill-rule="evenodd" clip-rule="evenodd" d="M90.5211 112.59C90.6619 112.352 90.67 112.015 90.659 111.796L90.5286 111.803C90.5395 112.02 90.5279 112.322 90.4087 112.524C90.3508 112.622 90.269 112.694 90.1512 112.723C90.0314 112.753 89.8658 112.742 89.638 112.653L89.5907 112.775C89.833 112.869 90.0277 112.889 90.1831 112.85C90.3405 112.81 90.4488 112.712 90.5211 112.59Z" fill="#F2F9FF"/>
</g>
</g>
</g>
<g id="Group 325">
<g id="Group 321_2">
<g id="Intersect_3" filter="url(#filter5_d_621_1483)">
<path fill-rule="evenodd" clip-rule="evenodd" d="M114.132 97.0723V114.415L109.555 116.875C108.888 117.233 108.081 116.751 108.081 115.994C108.081 109.868 108.075 103.061 108.075 97.0723H114.132Z" fill="#9CB7ED"/>
<path fill-rule="evenodd" clip-rule="evenodd" d="M114.132 97.0723V114.415L109.555 116.875C108.888 117.233 108.081 116.751 108.081 115.994C108.081 109.868 108.075 103.061 108.075 97.0723H114.132Z" stroke="url(#paint20_linear_621_1483)"/>
</g>
<g id="Group 320_2">
<path id="Vector 251 (Stroke)_3" fill-rule="evenodd" clip-rule="evenodd" d="M113.631 113.637V106.832H113.742V113.73L113.696 113.737C113.543 113.763 113.373 113.853 113.234 113.986C113.095 114.118 112.992 114.287 112.967 114.465L112.962 114.495L108.485 116.787V109.103H108.595V116.613L112.862 114.42C112.898 114.222 113.013 114.043 113.157 113.906C113.296 113.774 113.466 113.676 113.631 113.637Z" fill="url(#paint21_linear_621_1483)"/>
<path id="Vector 252 (Stroke)_3" fill-rule="evenodd" clip-rule="evenodd" d="M108.602 116.209C108.482 116.007 108.476 115.721 108.485 115.536L108.595 115.541C108.586 115.725 108.596 115.982 108.697 116.152C108.746 116.235 108.815 116.296 108.915 116.321C109.017 116.347 109.157 116.337 109.35 116.262L109.39 116.365C109.185 116.445 109.02 116.462 108.888 116.429C108.755 116.395 108.663 116.312 108.602 116.209Z" fill="#E3EFFB"/>
</g>
</g>
<g id="Group 323_2">
<g id="Group 316_2">
<g id="Intersect_4" filter="url(#filter6_d_621_1483)">
<path fill-rule="evenodd" clip-rule="evenodd" d="M115.106 114.024V97.0723H122.136V108.731C122.136 109.879 121.48 110.927 120.447 111.429L115.106 114.024Z" fill="#C6D9FF"/>
<path fill-rule="evenodd" clip-rule="evenodd" d="M115.106 114.024V97.0723H122.136V108.731C122.136 109.879 121.48 110.927 120.447 111.429L115.106 114.024Z" stroke="url(#paint22_linear_621_1483)"/>
</g>
</g>
<g id="Group 322_2">
<path id="Vector 251 (Stroke)_4" fill-rule="evenodd" clip-rule="evenodd" d="M121.615 109.787V101.757H121.745V109.896L121.691 109.905C121.51 109.935 121.31 110.042 121.146 110.198C120.982 110.354 120.861 110.554 120.831 110.764L120.826 110.799L115.542 113.274V104.436H115.672V113.068L120.707 110.71C120.75 110.478 120.885 110.266 121.056 110.104C121.219 109.948 121.42 109.833 121.615 109.787Z" fill="url(#paint23_linear_621_1483)"/>
<path id="Vector 252 (Stroke)_4" fill-rule="evenodd" clip-rule="evenodd" d="M115.68 112.59C115.539 112.352 115.531 112.015 115.542 111.796L115.672 111.803C115.661 112.02 115.673 112.322 115.792 112.524C115.85 112.622 115.932 112.694 116.05 112.723C116.17 112.753 116.335 112.742 116.563 112.653L116.61 112.775C116.368 112.869 116.173 112.889 116.018 112.85C115.86 112.81 115.752 112.712 115.68 112.59Z" fill="#F2F9FF"/>
</g>
</g>
</g>
<g id="Group 329">
<g id="Vector 301" filter="url(#filter7_d_621_1483)">
<path d="M96.363 91.9966H109.832V119.264L104.515 122.508C103.592 123.071 102.432 123.07 101.51 122.506L96.363 119.358V91.9966Z" fill="#6A88C4"/>
<path d="M96.363 91.9966H109.832V119.264L104.515 122.508C103.592 123.071 102.432 123.07 101.51 122.506L96.363 119.358V91.9966Z" stroke="url(#paint24_linear_621_1483)" strokeWidth="2"/>
</g>
<path id="Vector 318 (Stroke)" fill-rule="evenodd" clip-rule="evenodd" d="M97.0462 108.979H97.2414V118.783L103 122.334L108.856 118.782V108.979H109.051V118.892L103 122.563L97.0462 118.892V108.979Z" fill="url(#paint25_linear_621_1483)"/>
<g id="Group 326">
<path id="Vector 255 (Stroke)" fill-rule="evenodd" clip-rule="evenodd" d="M103.084 118.35V121.891H102.915V118.35H103.084Z" fill="url(#paint26_linear_621_1483)"/>
<path id="Vector 256 (Stroke)" fill-rule="evenodd" clip-rule="evenodd" d="M102.491 120.635C102.153 121.024 101.742 121.111 101.458 121.063L101.486 120.896C101.712 120.934 102.064 120.868 102.363 120.523C102.663 120.178 102.915 119.543 102.915 118.435H103.084C103.084 119.566 102.828 120.246 102.491 120.635Z" fill="url(#paint27_linear_621_1483)"/>
<path id="Vector 257 (Stroke)" fill-rule="evenodd" clip-rule="evenodd" d="M103.508 120.635C103.846 121.024 104.257 121.111 104.541 121.063L104.513 120.896C104.287 120.934 103.935 120.868 103.636 120.523C103.337 120.178 103.084 119.543 103.084 118.435H102.915C102.915 119.566 103.172 120.246 103.508 120.635Z" fill="url(#paint28_linear_621_1483)"/>
<path id="Vector 254 (Stroke)" fill-rule="evenodd" clip-rule="evenodd" d="M102.964 121.969L101.048 120.895L101.472 120.895L102.999 121.798L104.526 120.887H104.901L103.034 121.969C103.012 121.979 102.986 121.979 102.964 121.969Z" fill="url(#paint29_linear_621_1483)"/>
</g>
</g>
<g id="Group 288" filter="url(#filter8_d_621_1483)">
<g id="Group 206">
<g id="Group 169">
<g id="Group 166">
<path id="Union" d="M94.8764 60.1076L87.4756 64.1336C82.0048 67.1097 78.5992 72.839 78.5992 79.067L78.5992 89.0183C78.5992 95.2462 82.0048 100.976 87.4756 103.952L94.8764 107.978C99.9416 110.733 106.058 110.733 111.124 107.978L118.524 103.952C123.995 100.976 127.401 95.2462 127.401 89.0183L127.401 79.067C127.401 72.8391 123.995 67.1097 118.524 64.1336L111.124 60.1076C106.058 57.3522 99.9416 57.3522 94.8764 60.1076Z" fill="url(#paint30_linear_621_1483)"/>
<path id="Union_2" d="M94.8777 64.3857L91.1511 66.4129C85.7008 69.3778 82.3081 75.0856 82.3081 81.2901L82.3081 86.6969C82.3081 92.9014 85.7008 98.6092 91.1511 101.574L94.8777 103.601C99.9239 106.346 106.018 106.346 111.064 103.601L114.79 101.574C120.241 98.6092 123.633 92.9014 123.633 86.6969V81.2901C123.633 75.0856 120.241 69.3778 114.79 66.4129L111.064 64.3857C106.018 61.6406 99.9239 61.6406 94.8777 64.3857Z" fill="url(#paint31_linear_621_1483)"/>
<g id="Union_3" filter="url(#filter9_f_621_1483)">
<path d="M94.8777 64.3857L91.1511 66.4129C85.7008 69.3778 82.3081 75.0856 82.3081 81.2901L82.3081 86.6969C82.3081 92.9014 85.7008 98.6092 91.1511 101.574L94.8777 103.601C99.9239 106.346 106.018 106.346 111.064 103.601L114.79 101.574C120.241 98.6092 123.633 92.9014 123.633 86.6969V81.2901C123.633 75.0856 120.241 69.3778 114.79 66.4129L111.064 64.3857C106.018 61.6406 99.9239 61.6406 94.8777 64.3857Z" stroke="url(#paint32_linear_621_1483)"/>
</g>
<g id="Mask Group" opacity="0.5">
<mask id="mask0_621_1483" style="mask-type:alpha" maskUnits="userSpaceOnUse" x="84" y="64" width="39" height="40">
<path id="Union_4" d="M95.4047 66.1167L92.482 67.7051C87.2946 70.5245 84.065 75.9555 84.065 81.8595L84.065 86.2043C84.065 92.1083 87.2946 97.5393 92.482 100.359L95.4047 101.947C100.202 104.554 105.993 104.554 110.791 101.947L113.713 100.359C118.901 97.5393 122.13 92.1083 122.13 86.2043L122.13 81.8596C122.13 75.9555 118.901 70.5245 113.713 67.7051L110.791 66.1167C105.993 63.5094 100.202 63.5094 95.4047 66.1167Z" fill="#A6D3DE"/>
</mask>
<g mask="url(#mask0_621_1483)">
<path id="Innershadow0.1fill" d="M95.4047 66.1167L92.482 67.7051C87.2946 70.5245 84.065 75.9555 84.065 81.8595L84.065 86.2043C84.065 92.1083 87.2946 97.5393 92.482 100.359L95.4047 101.947C100.202 104.554 105.993 104.554 110.791 101.947L113.713 100.359C118.901 97.5393 122.13 92.1083 122.13 86.2043L122.13 81.8596C122.13 75.9555 118.901 70.5245 113.713 67.7051L110.791 66.1167C105.993 63.5094 100.202 63.5094 95.4047 66.1167Z" fill="url(#paint33_radial_621_1483)"/>
<g id="Group 57">
<path id="Vector 5" opacity="0.5" d="M99.9159 107.001L99.1598 61.0603H107.035L106.279 107.001H99.9159Z" fill="url(#paint34_linear_621_1483)"/>
<path id="Vector 6" opacity="0.5" d="M99.8146 106.593L76.1895 67.1853L83.0099 63.2475L105.325 103.411L99.8146 106.593Z" fill="url(#paint35_linear_621_1483)"/>
<path id="Vector 7" opacity="0.5" d="M99.1583 103.412L121.474 63.2478L128.294 67.1856L104.669 106.593L99.1583 103.412Z" fill="url(#paint36_linear_621_1483)"/>
<rect id="Rectangle 3" x="84.065" y="81.405" width="38.0652" height="24.7205" fill="url(#paint37_linear_621_1483)"/>
</g>
<g id="Innershadow0.1fill_2" filter="url(#filter10_i_621_1483)">
<path d="M95.4047 66.1167L92.482 67.7051C87.2946 70.5245 84.065 75.9555 84.065 81.8595L84.065 86.2043C84.065 92.1083 87.2946 97.5393 92.482 100.359L95.4047 101.947C100.202 104.554 105.993 104.554 110.791 101.947L113.713 100.359C118.901 97.5393 122.13 92.1083 122.13 86.2043L122.13 81.8596C122.13 75.9555 118.901 70.5245 113.713 67.7051L110.791 66.1167C105.993 63.5094 100.202 63.5094 95.4047 66.1167Z" fill="#6052B4" fill-opacity="0.01"/>
</g>
</g>
</g>
</g>
</g>
</g>
</g>
</g>
<g id="Group 397" filter="url(#filter11_d_621_1483)">
<path id="wood" d="M93.6123 93.7975C93.6876 93.8723 93.7688 93.9529 93.8557 94.0399L93.8575 94.0418C93.9443 94.1288 94.0247 94.2101 94.0994 94.2856L94.0996 94.2858C94.6064 94.7982 94.8493 95.0438 95.0691 95.0248C95.2715 95.0073 95.4544 94.7654 95.8056 94.3009C96.3201 93.6203 97.196 92.4618 99.0242 90.8305C99.948 89.8053 101.82 89.7567 103.939 90.0704C103.975 90.0802 104.011 90.0896 104.047 90.0989L97.8453 83.8845C97.8554 83.9246 97.8659 83.9647 97.8767 84.0048C98.1807 86.1164 98.123 87.9798 97.0939 88.8961C95.4521 90.7142 94.2878 91.5837 93.6039 92.0945C93.137 92.4432 92.894 92.6247 92.8756 92.8267C92.8556 93.046 93.1007 93.2894 93.612 93.7972L93.6123 93.7975Z" fill="url(#paint38_radial_621_1483)"/>
<path id="Exclude" fill-rule="evenodd" clip-rule="evenodd" d="M100.409 75.9798C98.06 78.3486 97.1685 81.2001 97.8434 83.879L104.002 90.0868C106.66 90.7667 109.488 89.8675 111.838 87.4987C115.393 83.9143 115.716 78.43 112.56 75.2491C109.405 72.0683 103.964 72.3954 100.409 75.9798ZM95.8436 94.3104C95.8436 94.3104 95.8436 94.3104 95.8436 94.3104V94.3104Z" fill="url(#paint39_radial_621_1483)"/>
</g>
</g>
<defs>
<filter id="filter0_f_621_1483" x="97.7745" y="45.158" width="10.5248" height="10.5249" filterUnits="userSpaceOnUse" color-interpolation-filters="sRGB">
<feFlood flood-opacity="0" result="BackgroundImageFix"/>
<feBlend mode="normal" in="SourceGraphic" in2="BackgroundImageFix" result="shape"/>
<feGaussianBlur stdDeviation="1.40075" result="effect1_foregroundBlur_621_1483"/>
</filter>
<filter id="filter1_f_621_1483" x="98.3685" y="45.4784" width="9.33707" height="9.88402" filterUnits="userSpaceOnUse" color-interpolation-filters="sRGB">
<feFlood flood-opacity="0" result="BackgroundImageFix"/>
<feBlend mode="normal" in="SourceGraphic" in2="BackgroundImageFix" result="shape"/>
<feGaussianBlur stdDeviation="0.420225" result="effect1_foregroundBlur_621_1483"/>
</filter>
<filter id="filter2_dd_621_1483" x="0.656498" y="0.924333" width="204.687" height="188.282" filterUnits="userSpaceOnUse" color-interpolation-filters="sRGB">
<feFlood flood-opacity="0" result="BackgroundImageFix"/>
<feColorMatrix in="SourceAlpha" type="matrix" values="0 0 0 0 0 0 0 0 0 0 0 0 0 0 0 0 0 0 127 0" result="hardAlpha"/>
<feOffset/>
<feGaussianBlur stdDeviation="10.1994"/>
<feColorMatrix type="matrix" values="0 0 0 0 0.558594 0 0 0 0 0.710156 0 0 0 0 0.9375 0 0 0 1 0"/>
<feBlend mode="normal" in2="BackgroundImageFix" result="effect1_dropShadow_621_1483"/>
<feColorMatrix in="SourceAlpha" type="matrix" values="0 0 0 0 0 0 0 0 0 0 0 0 0 0 0 0 0 0 127 0" result="hardAlpha"/>
<feOffset dy="4.07976"/>
<feGaussianBlur stdDeviation="30.5982"/>
<feColorMatrix type="matrix" values="0 0 0 0 0.670833 0 0 0 0 0.8025 0 0 0 0 1 0 0 0 0.6 0"/>
<feBlend mode="normal" in2="effect1_dropShadow_621_1483" result="effect2_dropShadow_621_1483"/>
<feBlend mode="normal" in="SourceGraphic" in2="effect2_dropShadow_621_1483" result="shape"/>
</filter>
<filter id="filter3_d_621_1483" x="83.5686" y="88.5723" width="23.057" height="36.9236" filterUnits="userSpaceOnUse" color-interpolation-filters="sRGB">
<feFlood flood-opacity="0" result="BackgroundImageFix"/>
<feColorMatrix in="SourceAlpha" type="matrix" values="0 0 0 0 0 0 0 0 0 0 0 0 0 0 0 0 0 0 127 0" result="hardAlpha"/>
<feOffset/>
<feGaussianBlur stdDeviation="4"/>
<feColorMatrix type="matrix" values="0 0 0 0 0.288889 0 0 0 0 0.357333 0 0 0 0 0.533333 0 0 0 0.74 0"/>
<feBlend mode="normal" in2="BackgroundImageFix" result="effect1_dropShadow_621_1483"/>
<feBlend mode="normal" in="SourceGraphic" in2="effect1_dropShadow_621_1483" result="shape"/>
</filter>
<filter id="filter4_d_621_1483" x="75.5651" y="88.5723" width="24.0302" height="34.2507" filterUnits="userSpaceOnUse" color-interpolation-filters="sRGB">
<feFlood flood-opacity="0" result="BackgroundImageFix"/>
<feColorMatrix in="SourceAlpha" type="matrix" values="0 0 0 0 0 0 0 0 0 0 0 0 0 0 0 0 0 0 127 0" result="hardAlpha"/>
<feOffset/>
<feGaussianBlur stdDeviation="4"/>
<feColorMatrix type="matrix" values="0 0 0 0 0.288889 0 0 0 0 0.357333 0 0 0 0 0.533333 0 0 0 0.74 0"/>
<feBlend mode="normal" in2="BackgroundImageFix" result="effect1_dropShadow_621_1483"/>
<feBlend mode="normal" in="SourceGraphic" in2="effect1_dropShadow_621_1483" result="shape"/>
</filter>
<filter id="filter5_d_621_1483" x="99.5754" y="88.5723" width="23.057" height="36.9236" filterUnits="userSpaceOnUse" color-interpolation-filters="sRGB">
<feFlood flood-opacity="0" result="BackgroundImageFix"/>
<feColorMatrix in="SourceAlpha" type="matrix" values="0 0 0 0 0 0 0 0 0 0 0 0 0 0 0 0 0 0 127 0" result="hardAlpha"/>
<feOffset/>
<feGaussianBlur stdDeviation="4"/>
<feColorMatrix type="matrix" values="0 0 0 0 0.288889 0 0 0 0 0.357333 0 0 0 0 0.533333 0 0 0 0.74 0"/>
<feBlend mode="normal" in2="BackgroundImageFix" result="effect1_dropShadow_621_1483"/>
<feBlend mode="normal" in="SourceGraphic" in2="effect1_dropShadow_621_1483" result="shape"/>
</filter>
<filter id="filter6_d_621_1483" x="106.606" y="88.5723" width="24.0302" height="34.2507" filterUnits="userSpaceOnUse" color-interpolation-filters="sRGB">
<feFlood flood-opacity="0" result="BackgroundImageFix"/>
<feColorMatrix in="SourceAlpha" type="matrix" values="0 0 0 0 0 0 0 0 0 0 0 0 0 0 0 0 0 0 127 0" result="hardAlpha"/>
<feOffset/>
<feGaussianBlur stdDeviation="4"/>
<feColorMatrix type="matrix" values="0 0 0 0 0.288889 0 0 0 0 0.357333 0 0 0 0 0.533333 0 0 0 0.74 0"/>
<feBlend mode="normal" in2="BackgroundImageFix" result="effect1_dropShadow_621_1483"/>
<feBlend mode="normal" in="SourceGraphic" in2="effect1_dropShadow_621_1483" result="shape"/>
</filter>
<filter id="filter7_d_621_1483" x="87.363" y="82.9966" width="31.4692" height="48.9331" filterUnits="userSpaceOnUse" color-interpolation-filters="sRGB">
<feFlood flood-opacity="0" result="BackgroundImageFix"/>
<feColorMatrix in="SourceAlpha" type="matrix" values="0 0 0 0 0 0 0 0 0 0 0 0 0 0 0 0 0 0 127 0" result="hardAlpha"/>
<feOffset/>
<feGaussianBlur stdDeviation="4"/>
<feColorMatrix type="matrix" values="0 0 0 0 0.288889 0 0 0 0 0.357333 0 0 0 0 0.533333 0 0 0 0.8 0"/>
<feBlend mode="normal" in2="BackgroundImageFix" result="effect1_dropShadow_621_1483"/>
<feBlend mode="normal" in="SourceGraphic" in2="effect1_dropShadow_621_1483" result="shape"/>
</filter>
<filter id="filter8_d_621_1483" x="72.5992" y="58.041" width="60.8015" height="66.0032" filterUnits="userSpaceOnUse" color-interpolation-filters="sRGB">
<feFlood flood-opacity="0" result="BackgroundImageFix"/>
<feColorMatrix in="SourceAlpha" type="matrix" values="0 0 0 0 0 0 0 0 0 0 0 0 0 0 0 0 0 0 127 0" result="hardAlpha"/>
<feOffset dy="8"/>
<feGaussianBlur stdDeviation="3"/>
<feColorMatrix type="matrix" values="0 0 0 0 0.141181 0 0 0 0 0.190317 0 0 0 0 0.316667 0 0 0 0.51 0"/>
<feBlend mode="normal" in2="BackgroundImageFix" result="effect1_dropShadow_621_1483"/>
<feBlend mode="normal" in="SourceGraphic" in2="effect1_dropShadow_621_1483" result="shape"/>
</filter>
<filter id="filter9_f_621_1483" x="81.5081" y="61.5269" width="42.9252" height="44.9333" filterUnits="userSpaceOnUse" color-interpolation-filters="sRGB">
<feFlood flood-opacity="0" result="BackgroundImageFix"/>
<feBlend mode="normal" in="SourceGraphic" in2="BackgroundImageFix" result="shape"/>
<feGaussianBlur stdDeviation="0.15" result="effect1_foregroundBlur_621_1483"/>
</filter>
<filter id="filter10_i_621_1483" x="84.065" y="64.1611" width="38.0652" height="39.7415" filterUnits="userSpaceOnUse" color-interpolation-filters="sRGB">
<feFlood flood-opacity="0" result="BackgroundImageFix"/>
<feBlend mode="normal" in="SourceGraphic" in2="BackgroundImageFix" result="shape"/>
<feColorMatrix in="SourceAlpha" type="matrix" values="0 0 0 0 0 0 0 0 0 0 0 0 0 0 0 0 0 0 127 0" result="hardAlpha"/>
<feOffset/>
<feGaussianBlur stdDeviation="6.72414"/>
<feComposite in2="hardAlpha" operator="arithmetic" k2="-1" k3="1"/>
<feColorMatrix type="matrix" values="0 0 0 0 0.297222 0 0 0 0 0.329917 0 0 0 0 0.445833 0 0 0 1 0"/>
<feBlend mode="normal" in2="shape" result="effect1_innerShadow_621_1483"/>
</filter>
<filter id="filter11_d_621_1483" x="88.8745" y="73.062" width="29.8564" height="32.9639" filterUnits="userSpaceOnUse" color-interpolation-filters="sRGB">
<feFlood flood-opacity="0" result="BackgroundImageFix"/>
<feColorMatrix in="SourceAlpha" type="matrix" values="0 0 0 0 0 0 0 0 0 0 0 0 0 0 0 0 0 0 127 0" result="hardAlpha"/>
<feOffset dy="7"/>
<feGaussianBlur stdDeviation="2"/>
<feComposite in2="hardAlpha" operator="out"/>
<feColorMatrix type="matrix" values="0 0 0 0 0 0 0 0 0 0 0 0 0 0 0 0 0 0 0.25 0"/>
<feBlend mode="normal" in2="BackgroundImageFix" result="effect1_dropShadow_621_1483"/>
<feBlend mode="normal" in="SourceGraphic" in2="effect1_dropShadow_621_1483" result="shape"/>
</filter>
<radialGradient id="paint0_radial_621_1483" cx="0" cy="0" r="1" gradientUnits="userSpaceOnUse" gradientTransform="translate(103.037 50.4204) rotate(90) scale(3.93746 3.93746)">
<stop stop-color="#E7ECFF"/>
<stop offset="0.979167" stop-color="#ABC3FF" stop-opacity="0.8825"/>
<stop offset="1" stop-color="#AACCFF" stop-opacity="0.88"/>
</radialGradient>
<linearGradient id="paint1_linear_621_1483" x1="102.764" y1="50.5569" x2="102.764" y2="109.072" gradientUnits="userSpaceOnUse">
<stop stop-color="#DEE7FF"/>
<stop offset="0.0722622" stop-color="#CCDDFF" stop-opacity="0.33"/>
<stop offset="1" stop-color="#98C6F0" stop-opacity="0"/>
</linearGradient>
<linearGradient id="paint2_linear_621_1483" x1="102.815" y1="43" x2="102.815" y2="75.4314" gradientUnits="userSpaceOnUse">
<stop stop-color="#AACCFF" stop-opacity="0"/>
<stop offset="1" stop-color="#AACCFF" stop-opacity="0.3"/>
</linearGradient>
<linearGradient id="paint3_linear_621_1483" x1="137.858" y1="104.64" x2="109.772" y2="88.4242" gradientUnits="userSpaceOnUse">
<stop stop-color="#AACCFF" stop-opacity="0"/>
<stop offset="1" stop-color="#AACCFF" stop-opacity="0.3"/>
</linearGradient>
<linearGradient id="paint4_linear_621_1483" x1="102.61" y1="125.153" x2="102.61" y2="92.7214" gradientUnits="userSpaceOnUse">
<stop stop-color="#AACCFF" stop-opacity="0"/>
<stop offset="1" stop-color="#AACCFF" stop-opacity="0.3"/>
</linearGradient>
<linearGradient id="paint5_linear_621_1483" x1="67.6215" y1="104.743" x2="95.7079" y2="88.527" gradientUnits="userSpaceOnUse">
<stop stop-color="#AACCFF" stop-opacity="0"/>
<stop offset="1" stop-color="#AACCFF" stop-opacity="0.3"/>
</linearGradient>
<linearGradient id="paint6_linear_621_1483" x1="137.858" y1="63.5642" x2="109.772" y2="79.78" gradientUnits="userSpaceOnUse">
<stop stop-color="#AACCFF" stop-opacity="0"/>
<stop offset="1" stop-color="#AACCFF" stop-opacity="0.3"/>
</linearGradient>
<linearGradient id="paint7_linear_621_1483" x1="67.6215" y1="63.4614" x2="95.7079" y2="79.6771" gradientUnits="userSpaceOnUse">
<stop stop-color="#AACCFF" stop-opacity="0"/>
<stop offset="1" stop-color="#AACCFF" stop-opacity="0.3"/>
</linearGradient>
<linearGradient id="paint8_linear_621_1483" x1="74.6435" y1="80.1467" x2="67.8141" y2="73.3174" gradientUnits="userSpaceOnUse">
<stop stop-color="#C3C5D1"/>
<stop offset="0.875" stop-color="#F9F9F9"/>
</linearGradient>
<linearGradient id="paint9_linear_621_1483" x1="64.1196" y1="72.0859" x2="70.613" y2="80.1467" gradientUnits="userSpaceOnUse">
<stop stop-color="#F9F9F9"/>
<stop offset="0.378992" stop-color="#F9F9F9"/>
<stop offset="0.480868" stop-color="#DFDFE6"/>
<stop offset="0.729174" stop-color="#B8BAC6"/>
</linearGradient>
<linearGradient id="paint10_linear_621_1483" x1="79.3456" y1="86.3037" x2="72.5163" y2="79.2504" gradientUnits="userSpaceOnUse">
<stop stop-color="#C3C5D1"/>
<stop offset="0.875" stop-color="#F9F9F9"/>
</linearGradient>
<linearGradient id="paint11_linear_621_1483" x1="70.725" y1="79.2504" x2="74.1956" y2="86.3037" gradientUnits="userSpaceOnUse">
<stop stop-color="#F4F4F5"/>
<stop offset="0.306027" stop-color="#F4F4F5"/>
<stop offset="0.462087" stop-color="#E8E9EC"/>
<stop offset="0.682292" stop-color="#DFDFE6"/>
<stop offset="1" stop-color="#B8BAC6"/>
</linearGradient>
<linearGradient id="paint12_linear_621_1483" x1="131.356" y1="80.1467" x2="138.186" y2="73.3174" gradientUnits="userSpaceOnUse">
<stop stop-color="#C3C5D1"/>
<stop offset="0.875" stop-color="#F9F9F9"/>
</linearGradient>
<linearGradient id="paint13_linear_621_1483" x1="141.88" y1="72.0859" x2="135.387" y2="80.1467" gradientUnits="userSpaceOnUse">
<stop stop-color="#F9F9F9"/>
<stop offset="0.378992" stop-color="#F9F9F9"/>
<stop offset="0.480868" stop-color="#DFDFE6"/>
<stop offset="0.729174" stop-color="#B8BAC6"/>
</linearGradient>
<linearGradient id="paint14_linear_621_1483" x1="126.654" y1="86.3037" x2="133.484" y2="79.2504" gradientUnits="userSpaceOnUse">
<stop stop-color="#C3C5D1"/>
<stop offset="0.875" stop-color="#F9F9F9"/>
</linearGradient>
<linearGradient id="paint15_linear_621_1483" x1="135.275" y1="79.2504" x2="131.804" y2="86.3037" gradientUnits="userSpaceOnUse">
<stop stop-color="#F4F4F5"/>
<stop offset="0.306027" stop-color="#F4F4F5"/>
<stop offset="0.462087" stop-color="#E8E9EC"/>
<stop offset="0.682292" stop-color="#DFDFE6"/>
<stop offset="1" stop-color="#B8BAC6"/>
</linearGradient>
<linearGradient id="paint16_linear_621_1483" x1="98.1256" y1="110.938" x2="91.7425" y2="111.926" gradientUnits="userSpaceOnUse">
<stop stop-color="#91B1E3"/>
<stop offset="0.208702" stop-color="#F0F6FF"/>
<stop offset="0.514766" stop-color="#A4BFE9"/>
<stop offset="0.728274" stop-color="#8BADE0"/>
<stop offset="0.971703" stop-color="#D0DEF3"/>
</linearGradient>
<linearGradient id="paint17_linear_621_1483" x1="92.707" y1="112.456" x2="95.8709" y2="111.513" gradientUnits="userSpaceOnUse">
<stop stop-color="#FAFCFF"/>
<stop offset="0.309893" stop-color="#D7E6FC"/>
<stop offset="0.523799" stop-color="#C1D8F4"/>
<stop offset="0.77229" stop-color="#BBD6FF"/>
<stop offset="1" stop-color="white"/>
</linearGradient>
<linearGradient id="paint18_linear_621_1483" x1="83.8698" y1="106.833" x2="91.4066" y2="115.277" gradientUnits="userSpaceOnUse">
<stop stop-color="#91B1E3"/>
<stop offset="0.208702" stop-color="#F0F6FF"/>
<stop offset="0.648432" stop-color="#A4BFE9"/>
<stop offset="0.780206" stop-color="#8BADE0"/>
<stop offset="0.971703" stop-color="#93B3E4"/>
</linearGradient>
<linearGradient id="paint19_linear_621_1483" x1="84.7482" y1="108.394" x2="88.4817" y2="107.281" gradientUnits="userSpaceOnUse">
<stop stop-color="#FAFCFF"/>
<stop offset="0.309893" stop-color="#D7E6FC"/>
<stop offset="0.523799" stop-color="#C1D8F4"/>
<stop offset="0.77229" stop-color="#BBD6FF"/>
<stop offset="1" stop-color="white"/>
</linearGradient>
<linearGradient id="paint20_linear_621_1483" x1="108.075" y1="110.938" x2="114.458" y2="111.926" gradientUnits="userSpaceOnUse">
<stop stop-color="#91B1E3"/>
<stop offset="0.208702" stop-color="#F0F6FF"/>
<stop offset="0.514766" stop-color="#A4BFE9"/>
<stop offset="0.728274" stop-color="#8BADE0"/>
<stop offset="0.971703" stop-color="#D0DEF3"/>
</linearGradient>
<linearGradient id="paint21_linear_621_1483" x1="113.494" y1="112.456" x2="110.33" y2="111.513" gradientUnits="userSpaceOnUse">
<stop stop-color="#FAFCFF"/>
<stop offset="0.309893" stop-color="#D7E6FC"/>
<stop offset="0.523799" stop-color="#C1D8F4"/>
<stop offset="0.77229" stop-color="#BBD6FF"/>
<stop offset="1" stop-color="white"/>
</linearGradient>
<linearGradient id="paint22_linear_621_1483" x1="122.331" y1="106.833" x2="114.794" y2="115.277" gradientUnits="userSpaceOnUse">
<stop stop-color="#91B1E3"/>
<stop offset="0.208702" stop-color="#F0F6FF"/>
<stop offset="0.648432" stop-color="#A4BFE9"/>
<stop offset="0.780206" stop-color="#8BADE0"/>
<stop offset="0.971703" stop-color="#93B3E4"/>
</linearGradient>
<linearGradient id="paint23_linear_621_1483" x1="121.453" y1="108.394" x2="117.719" y2="107.281" gradientUnits="userSpaceOnUse">
<stop stop-color="#FAFCFF"/>
<stop offset="0.309893" stop-color="#D7E6FC"/>
<stop offset="0.523799" stop-color="#C1D8F4"/>
<stop offset="0.77229" stop-color="#BBD6FF"/>
<stop offset="1" stop-color="white"/>
</linearGradient>
<linearGradient id="paint24_linear_621_1483" x1="96.363" y1="114.348" x2="110.264" y2="117.316" gradientUnits="userSpaceOnUse">
<stop stop-color="#91B1E3"/>
<stop offset="0.208702" stop-color="#F0F6FF"/>
<stop offset="0.648432" stop-color="#A4BFE9"/>
<stop offset="0.780206" stop-color="#8BADE0"/>
<stop offset="0.971703" stop-color="#93B3E4"/>
</linearGradient>
<linearGradient id="paint25_linear_621_1483" x1="108.485" y1="116.807" x2="102.137" y2="113.702" gradientUnits="userSpaceOnUse">
<stop stop-color="#FAFCFF"/>
<stop offset="0.309893" stop-color="#D7E6FC"/>
<stop offset="0.523799" stop-color="#C1D8F4"/>
<stop offset="0.77229" stop-color="#BBD6FF"/>
<stop offset="1" stop-color="white"/>
</linearGradient>
<linearGradient id="paint26_linear_621_1483" x1="103" y1="118.35" x2="103" y2="121.659" gradientUnits="userSpaceOnUse">
<stop stop-color="#6A88C3"/>
<stop offset="0.479167" stop-color="#E4EFFD"/>
<stop offset="1" stop-color="#E1ECFD"/>
</linearGradient>
<linearGradient id="paint27_linear_621_1483" x1="102.271" y1="118.435" x2="102.271" y2="121.075" gradientUnits="userSpaceOnUse">
<stop stop-color="#E2F5FF" stop-opacity="0"/>
<stop offset="0.479167" stop-color="#B6CAFE"/>
<stop offset="1" stop-color="#CCD7FF"/>
</linearGradient>
<linearGradient id="paint28_linear_621_1483" x1="103.728" y1="118.435" x2="103.728" y2="121.075" gradientUnits="userSpaceOnUse">
<stop stop-color="#E2F5FF" stop-opacity="0"/>
<stop offset="0.479167" stop-color="#B6CAFE"/>
<stop offset="1" stop-color="#CCD7FF"/>
</linearGradient>
<linearGradient id="paint29_linear_621_1483" x1="102.794" y1="121.26" x2="100.593" y2="121.52" gradientUnits="userSpaceOnUse">
<stop stop-color="#C9DEFC"/>
<stop offset="0.309893" stop-color="#ECF4FF"/>
<stop offset="0.523799" stop-color="#EAF6FF"/>
<stop offset="0.613641" stop-color="#CCE7FF"/>
<stop offset="1" stop-color="#CEE4F9"/>
</linearGradient>
<linearGradient id="paint30_linear_621_1483" x1="92.7517" y1="62.5207" x2="114.712" y2="106.149" gradientUnits="userSpaceOnUse">
<stop stop-color="#FAFAFA"/>
<stop offset="1" stop-color="#C2C4CD"/>
</linearGradient>
<linearGradient id="paint31_linear_621_1483" x1="92.5564" y1="66.1321" x2="111.491" y2="101.074" gradientUnits="userSpaceOnUse">
<stop stop-color="#CDCFD6"/>
<stop offset="1" stop-color="#EFEFF1"/>
</linearGradient>
<linearGradient id="paint32_linear_621_1483" x1="94.6061" y1="64.8633" x2="115.005" y2="101.562" gradientUnits="userSpaceOnUse">
<stop stop-color="#DDDFE2"/>
<stop offset="1" stop-color="white"/>
</linearGradient>
<radialGradient id="paint33_radial_621_1483" cx="0" cy="0" r="1" gradientUnits="userSpaceOnUse" gradientTransform="translate(103.098 84.0319) rotate(90) scale(22.0964 19.0326)">
<stop stop-color="#F5F7FF"/>
<stop offset="1" stop-color="#B3B5C5"/>
</radialGradient>
<linearGradient id="paint34_linear_621_1483" x1="103.098" y1="61.0603" x2="103.098" y2="107.001" gradientUnits="userSpaceOnUse">
<stop stop-color="white"/>
<stop offset="1" stop-color="#F2EDED" stop-opacity="0"/>
</linearGradient>
<linearGradient id="paint35_linear_621_1483" x1="79.5997" y1="65.2164" x2="102.57" y2="105.002" gradientUnits="userSpaceOnUse">
<stop stop-color="white"/>
<stop offset="1" stop-color="#F2EDED" stop-opacity="0"/>
</linearGradient>
<linearGradient id="paint36_linear_621_1483" x1="124.884" y1="65.2167" x2="101.914" y2="105.003" gradientUnits="userSpaceOnUse">
<stop stop-color="white"/>
<stop offset="1" stop-color="#F2EDED" stop-opacity="0"/>
</linearGradient>
<linearGradient id="paint37_linear_621_1483" x1="103.098" y1="92.1245" x2="102.983" y2="104.594" gradientUnits="userSpaceOnUse">
<stop stop-color="white" stop-opacity="0"/>
<stop offset="1" stop-color="#D0DBFF"/>
</linearGradient>
<radialGradient id="paint38_radial_621_1483" cx="0" cy="0" r="1" gradientUnits="userSpaceOnUse" gradientTransform="translate(107.744 78.8365) rotate(130.683) scale(24.6169 6.40693)">
<stop stop-color="#A8A9AD"/>
<stop offset="0.470376" stop-color="#AFB1AE" stop-opacity="0.747917"/>
<stop offset="0.815625" stop-color="#CCCCCC" stop-opacity="0.86"/>
<stop offset="1" stop-color="#757575" stop-opacity="0.94"/>
</radialGradient>
<radialGradient id="paint39_radial_621_1483" cx="0" cy="0" r="1" gradientUnits="userSpaceOnUse" gradientTransform="translate(121.582 63.3619) rotate(129.829) scale(46.6035 12.077)">
<stop stop-color="#A8A9AD"/>
<stop offset="0.470376" stop-color="#AFB1AE" stop-opacity="0.747917"/>
<stop offset="0.815625" stop-color="#CCCCCC" stop-opacity="0.86"/>
<stop offset="1" stop-color="#757575" stop-opacity="0.94"/>
</radialGradient>
</defs>
</svg>
